<svg xmlns="http://www.w3.org/2000/svg" xmlns:xlink="http://www.w3.org/1999/xlink" viewBox="0 0 640 223"><defs><style>.cls-1{isolation:isolate;}.cls-2{fill:#0c1a4c;}.cls-3{opacity:0.9;mix-blend-mode:multiply;}.cls-4{fill:url(#radial-gradient);}.cls-5{fill:#fede59;}.cls-6{fill:#e7bd47;}.cls-7{fill:#8b7612;}.cls-8{fill:#ffb632;}.cls-9{fill:#fcdc65;}.cls-10{fill:#ebdc10;}.cls-11,.cls-47{fill:#52b2b2;}.cls-12{fill:#126a75;}.cls-13,.cls-14,.cls-15,.cls-16,.cls-17,.cls-18,.cls-19,.cls-20,.cls-29,.cls-30,.cls-32,.cls-33,.cls-34,.cls-35,.cls-37,.cls-38,.cls-39,.cls-47,.cls-48,.cls-49,.cls-50,.cls-51,.cls-52,.cls-72,.cls-73,.cls-74,.cls-77,.cls-78,.cls-79{fill-rule:evenodd;}.cls-14{fill:#c7c4e2;}.cls-15{fill:#edd5d9;}.cls-16{fill:#fff200;}.cls-17,.cls-21{fill:#94217d;}.cls-18{fill:#faa74a;}.cls-19{fill:#f58345;}.cls-20{fill:#fed09e;}.cls-22{fill:#d9f6ff;}.cls-23{fill:#ffad1f;}.cls-24{fill:#b2c6c5;}.cls-25{fill:#f2ebb9;}.cls-26{fill:#9b9156;}.cls-27{fill:#d7d198;}.cls-28{fill:#a58e74;}.cls-29{fill:#8ed8f8;}.cls-30{fill:#f58220;}.cls-31,.cls-32{fill:#ffcb05;}.cls-33{fill:#b06e59;}.cls-34{fill:#aec0da;}.cls-35{fill:#c4c4d7;}.cls-36{fill:#e4c759;}.cls-37{fill:#f6adcd;}.cls-38{fill:#c7a0cb;}.cls-39{fill:#f8abad;}.cls-40{fill:#9f9dc1;}.cls-41{fill:#67697e;}.cls-42{fill:#dddee2;}.cls-43{fill:#00b8d0;}.cls-44{fill:#af1902;}.cls-45{fill:#abb6b7;}.cls-46{fill:#398e8c;}.cls-48{fill:#e9e739;}.cls-49{fill:#fff685;}.cls-50{fill:#fcc826;}.cls-51{fill:#f0a2ab;}.cls-52{fill:#c657a0;}.cls-53{fill:#b78a57;}.cls-54{fill:#e0ba95;}.cls-55{fill:#ff6b25;}.cls-56{fill:#e7c35a;}.cls-57{fill:#1e4260;}.cls-58{fill:#8d9295;}.cls-59{fill:#e92504;}.cls-60{fill:#b6bebe;}.cls-61{fill:#d4ddd4;}.cls-62{fill:#6e92b9;}.cls-63{fill:#ffac22;}.cls-64{fill:#ababab;}.cls-65{fill:#7f8386;}.cls-66{fill:#64aabd;}.cls-67{fill:#ef5a4e;}.cls-68{fill:#90959b;}.cls-69{fill:#c0c3c7;}.cls-70{fill:#bfbfbf;}.cls-71{fill:#d9d7d0;}.cls-72{fill:#d7e9db;}.cls-73{fill:#3e4766;}.cls-74,.cls-75{fill:#020002;}.cls-76{fill:#d0b892;}.cls-77{fill:#726c20;}.cls-78{fill:#e8941a;}.cls-79{fill:#f8f96d;}</style><radialGradient id="radial-gradient" cx="-1728.26" cy="-1686.89" r="3612" gradientTransform="translate(589.52 203.14) scale(0.16 0.05)" gradientUnits="userSpaceOnUse"><stop offset="0.1" stop-color="#fbfcf8"/><stop offset="0.36" stop-color="#f9faf6"/><stop offset="0.48" stop-color="#f1f3ee"/><stop offset="0.58" stop-color="#e4e7e1"/><stop offset="0.66" stop-color="#d2d5ce"/><stop offset="0.74" stop-color="#babeb6"/><stop offset="0.81" stop-color="#9ca399"/><stop offset="0.87" stop-color="#798175"/><stop offset="0.93" stop-color="#505b4c"/><stop offset="0.98" stop-color="#24301f"/><stop offset="1" stop-color="#111f0c"/></radialGradient></defs><title>Asset 2</title><g class="cls-1"><g id="Layer_2" data-name="Layer 2"><g id="Hero"><g id="Hero_Bg" data-name="Hero Bg"><rect class="cls-2" width="640" height="223"/><g class="cls-3"><rect class="cls-4" width="640" height="223"/></g><g id="_Group_" data-name="&lt;Group&gt;"><path id="_Compound_Path_" data-name="&lt;Compound Path&gt;" d="M251.63,79.43a1.79,1.79,0,0,0,.83.34c.37,0,.36-.2.62-.38s.73,0,1,0a2.63,2.63,0,0,0,1.07-.22,1.93,1.93,0,0,1,1.08-.16c.29.08.48.26.79.27a5.72,5.72,0,0,0,1.17-.1,6.18,6.18,0,0,0,.62-.12,5.15,5.15,0,0,0,.95-.27,9,9,0,0,0,3-2.23,3.58,3.58,0,0,1,.9-.57,3.85,3.85,0,0,0,2-1.81,2.62,2.62,0,0,0,.19-2,4.71,4.71,0,0,1-.35-1.12,2.66,2.66,0,0,0-.45-1.22,1.25,1.25,0,0,0-.58-.44,1.63,1.63,0,0,1-.55-.25c-.17-.18-.18-.45-.34-.64a.83.83,0,0,0-.68-.23c-.25,0-.49.07-.74.06a3.3,3.3,0,0,1-1.11-.4,1.41,1.41,0,0,0-1.12-.1,7.23,7.23,0,0,0-.95.6,1.33,1.33,0,0,1-.95.28,2.54,2.54,0,0,0-.82-.16,1.71,1.71,0,0,0-1.49.87c-.18.36-.27.75-.43,1.12a1.44,1.44,0,0,1-.8.84,5.1,5.1,0,0,1-1,.07,1.49,1.49,0,0,0-.86.42c-.21.2-.32.51-.65.55-1.23.14-1.47,1.78-1.45,2.32v.16c0,.4,0,.4-.2.59-.69.59-.27,1.69-.06,2.25A3.82,3.82,0,0,0,251.63,79.43Z"/><g id="_Group_2" data-name="&lt;Group&gt;"><path id="_Compound_Path_2" data-name="&lt;Compound Path&gt;" class="cls-5" d="M264.37,69.78a.75.75,0,0,1,.17.14,2.51,2.51,0,0,1,.33.94,10,10,0,0,1,.3,1.07,2.7,2.7,0,0,1-.09,2.08c-.63,1.36-2,1.44-2.76,2.21a8.47,8.47,0,0,1-2.81,2.08,7.88,7.88,0,0,1-1.43.36,3,3,0,0,1-1.23,0c-.25,0-.48-.18-.74-.22a5,5,0,0,0-1.72.36,2.43,2.43,0,0,1-2.11-.65c-.38-.36-1-1.16-.31-1.52s.17-.43.45-.78a.74.74,0,0,0-.33-.91c-.23-.15-.5-.93.57-1a1.46,1.46,0,0,0,1.35-.66c.54-.69.82-.09,1.5-.53a8.34,8.34,0,0,1,1.26-.93c.66-.35.07-1.3.57-1.32a3.11,3.11,0,0,0,1.79-.35c1-.64,1.22-.19,1.72-.76s.63,0,1.2-.15c.38-.1.51.09.79.27s.63.06,1,.08A1.15,1.15,0,0,1,264.37,69.78Zm-1,3.06c.39-1,.23-1.7-.62-1.51a4.34,4.34,0,0,0-2.47,2.18c-.51,1-.17,1.67.63,1.58A3.63,3.63,0,0,0,263.37,72.84Zm-4.72.28c.05-.75-.43-1.18-1.06-1a2.12,2.12,0,0,0-1.24,1.76c-.05.76.43,1.18,1.06,1A2.09,2.09,0,0,0,258.65,73.12Zm-3.89,2.46a.59.59,0,0,0-.44-.82.84.84,0,0,0-.93.55.59.59,0,0,0,.44.82A.84.84,0,0,0,254.76,75.58Z"/><path id="_Path_" data-name="&lt;Path&gt;" class="cls-6" d="M262,69.08a.78.78,0,0,1-.37-.09c-.14-.08-.23-.23-.39-.25a.54.54,0,0,0-.48.18c-.3.34-.58.41-.78.31s-.65.32-1.09.61c-.6.4-1.72.16-2.06.32-.59.29.25,1.12-.46,1.49a7.83,7.83,0,0,0-1.11.74c-.72.47-.79-.41-1.51.54a1.36,1.36,0,0,1-1.4.62c-1.15.06-1,1.43-.74,1.59.43.29.5.57.37.73-.31.38-.66.38-.85.94-.1.31.13.59.31.82a8.68,8.68,0,0,0,.56.79,1.35,1.35,0,0,0,.87.45.18.18,0,0,1,0,.2.46.46,0,0,1-.18.1A.92.92,0,0,1,252,79a3.21,3.21,0,0,1-1.1-1.4c-.14-.37-.49-1.26-.11-1.59s.42-.65.39-1.23c0-.27.11-1.6.91-1.69a1.7,1.7,0,0,0,1.09-.78c.49-.7,1.08-.06,1.64-.37.29-.15.82-.26.94-.88.08-.46.37-1.43.93-1.69.92-.44,1.52.26,2.08-.12a3.37,3.37,0,0,1,2-.8,2.93,2.93,0,0,1,.71.12c.21,0,.38.19.6.22a2.77,2.77,0,0,0,.5,0,1,1,0,0,1,.94.62.6.6,0,0,1-.55-.07c-.07,0-.13-.11-.2-.15a1,1,0,0,0-.35-.14,1.76,1.76,0,0,0-.4.06Z"/><path id="_Path_2" data-name="&lt;Path&gt;" class="cls-7" d="M262.51,72.05c.53-.11.55.34.21,1a2.81,2.81,0,0,1-1.7,1.43c-.49.06-.62-.37-.21-1A3.43,3.43,0,0,1,262.51,72.05Z"/><path id="_Path_3" data-name="&lt;Path&gt;" class="cls-7" d="M257.61,72.64c.33-.15.57.1.52.58a1.52,1.52,0,0,1-.7,1.13c-.34.16-.57-.1-.52-.57A1.56,1.56,0,0,1,257.61,72.64Z"/></g></g><g id="_Group_3" data-name="&lt;Group&gt;"><polygon id="_Path_4" data-name="&lt;Path&gt;" points="322.22 135.28 319.94 130.19 317.86 134.91 312.45 136.07 316.46 139.15 315.05 144.51 319.94 141.08 325.18 144.36 323.61 139.12 327.51 136.36 322.22 135.28"/><polygon id="_Path_5" data-name="&lt;Path&gt;" class="cls-8" points="326.17 136.64 321.83 135.75 319.9 131.15 318.26 135.38 313.71 136.35 317.09 138.95 315.7 143.62 319.92 140.42 324.48 143.42 322.97 138.91 326.17 136.64"/></g><g id="_Group_4" data-name="&lt;Group&gt;"><path id="_Path_6" data-name="&lt;Path&gt;" d="M231.21,22l.67-1.69-1.73.46L228.66,19l-.21,2.31-1.6,1.23c.47.16,1.56.49,1.56.49l.16,2.08L230,23.44l2.1.48Z"/><polygon id="_Path_7" data-name="&lt;Path&gt;" class="cls-9" points="230.69 21.98 231.28 23.22 229.84 22.89 228.96 23.92 228.87 22.66 227.7 22.44 228.91 21.62 229.04 20.22 229.99 21.3 231.07 21.01 230.69 21.98"/></g><g id="_Group_5" data-name="&lt;Group&gt;"><polygon id="_Path_8" data-name="&lt;Path&gt;" points="239.61 25.55 240.66 23.09 238.11 24 236.07 22.13 236.16 24.9 234.23 26.59 236.35 26.86 237.34 29.58 238.45 27.45 240.78 27.7 239.61 25.55"/><polygon id="_Path_9" data-name="&lt;Path&gt;" class="cls-10" points="239.12 25.56 239.98 27.14 238.19 26.95 237.42 28.4 236.7 26.4 235.35 26.23 236.66 25.08 236.6 23.23 238.02 24.54 239.83 23.89 239.12 25.56"/></g><g id="_Group_6" data-name="&lt;Group&gt;"><path id="_Compound_Path_3" data-name="&lt;Compound Path&gt;" d="M57.78,199.13a2.36,2.36,0,0,0-.1-.46,6.45,6.45,0,0,0,.54-4.08c-.42-2.37-3.27-5.05-5.76-3.42a2.24,2.24,0,0,0-1,1.77,1.31,1.31,0,0,0,.13.75,1.15,1.15,0,0,0,.41.38,1.48,1.48,0,0,0,1,.17,1,1,0,0,1-.28-.64,1.1,1.1,0,0,1,.69-.93,1.64,1.64,0,0,1,1.28.14A2.43,2.43,0,0,1,56,195a2.27,2.27,0,0,1-.27,1.22l-.06.11a4.29,4.29,0,0,0-.63-.23,2.74,2.74,0,0,0-2.48.45,3,3,0,0,0-1.15,2.25,2.39,2.39,0,0,0,.4,1.22h0a4,4,0,0,1-1.75.16h0a7.81,7.81,0,0,0,.88-3.73,5.89,5.89,0,0,0-9.15-5.08c-3,2-3.32,6.14-1.56,9.08a24.8,24.8,0,0,1-14.76-8.87c-3.56-4.41-4.34-12.2-4.34-13.45a29.45,29.45,0,0,1,4.7-15.61l.13-.2-.12-.2a7,7,0,0,0-1.33-1.65,9.08,9.08,0,0,0-4.69-2.18l-.14.23a37.45,37.45,0,0,0-5.31,17.62c-.2,7,1.27,12.66,4.5,17.22a29.38,29.38,0,0,0,20.68,12.47,11.15,11.15,0,0,0,5.84-1.1l.49.18a3.26,3.26,0,0,0,.44.15c2.49.76,5.57.94,7.84-.32C55.73,203.87,58.06,202.2,57.78,199.13Zm-11,0a5.13,5.13,0,0,1-1.34-.89,3.73,3.73,0,0,1-1.36-4c.36-.9,1.31-1.78,2.32-1.34,1.62.71,1.75,2.85,1.3,4.31A10.61,10.61,0,0,1,46.74,199.14Z"/><g id="_Group_7" data-name="&lt;Group&gt;"><path id="_Path_10" data-name="&lt;Path&gt;" class="cls-11" d="M47.43,205.07a10.91,10.91,0,0,0,2.13.33,9.1,9.1,0,0,0,4-.79,8.88,8.88,0,0,0,.87-.44,6.29,6.29,0,0,0,2.66-3,4.17,4.17,0,0,0,.27-1.21,3.55,3.55,0,0,0,0-.8,3,3,0,0,0-1.26-2.12,3.93,3.93,0,0,0-1.2-.57,2.49,2.49,0,0,0-3.15,2.32c0,.9.79,1.94,1.87,1.67a.92.92,0,0,0,.48-.3,1,1,0,0,0,.09-1,.54.54,0,0,0-.92,0c-.12.21-.31.19-.27-.08a1.37,1.37,0,0,1,2.11-.94c1.14.68.51,2.66-.58,3.51l-.18.14c-.95.75-2.49,1.91-6.13,1a11.21,11.21,0,0,1-.93.81,10.55,10.55,0,0,0,3.53.48,6.43,6.43,0,0,1-4-.13c-.32.22-.62.41-.91.58C46.41,204.77,46.9,204.93,47.43,205.07Z"/><path id="_Path_11" data-name="&lt;Path&gt;" class="cls-12" d="M56.16,196.5a2.68,2.68,0,0,1,.75.6c.12.15.72.82.64,1a6.45,6.45,0,0,0,.3-3.46,4.57,4.57,0,0,0-2.35-3.25c-1.39-.7-3.54-.28-3.68,1.56,0,.46.2,1,.66,1.05-.56-.73.36-1.58,1.05-1.75a2.31,2.31,0,0,1,2,.62,3.29,3.29,0,0,1,.78,2.12,2.56,2.56,0,0,1-.31,1.44Z"/><path id="_Path_12" data-name="&lt;Path&gt;" class="cls-12" d="M54,200.63a2,2,0,0,1-2.07-.22,4.21,4.21,0,0,1-1.91.19,9.13,9.13,0,0,1-.53.84,11.84,11.84,0,0,0,2.38.31,5.46,5.46,0,0,1-2.62,0c-.18.23-.38.46-.57.67,2.83.67,4.44-.08,5.34-.8l.26-.23c1-.92,1.27-2.77-.12-2.87a1.28,1.28,0,0,1,.21,1.81A1,1,0,0,1,54,200.63Z"/><path id="_Path_13" data-name="&lt;Path&gt;" class="cls-12" d="M46.39,199.42c-.15.19-1.5-1.07-1.61-1.21a5.31,5.31,0,0,1-1.09-1.86,2.85,2.85,0,0,1,1.22-3.58s.07,0,.08,0a2.12,2.12,0,0,0-1.26.13,2.29,2.29,0,0,0-.76.63c-2.17,2.23-.28,6.52,2,7.23a4.33,4.33,0,0,0,.64-.5,5,5,0,0,1-2-1.81A10,10,0,0,0,45.9,200,6.33,6.33,0,0,0,46.39,199.42Z"/><path id="_Path_14" data-name="&lt;Path&gt;" class="cls-12" d="M40.12,200.87a23.53,23.53,0,0,1-15-9c-3.53-4.38-4.43-12.1-4.42-13.69a29.76,29.76,0,0,1,4.75-15.82,7.24,7.24,0,0,0-.91-1.23l-.22-.22A28.54,28.54,0,0,0,19,178.85c.47,10.37,4.64,14.58,8.28,17.6,5,4.15,11.35,6,13.91,5.61Z"/><path id="_Path_15" data-name="&lt;Path&gt;" class="cls-11" d="M50.51,196.5a5.52,5.52,0,0,0-8.57-4.78,6,6,0,0,0-2.52,4.78,5.55,5.55,0,0,0,.08,1A6.54,6.54,0,0,0,42,201.94a7.57,7.57,0,0,0,.88-.2,5.52,5.52,0,0,1-1.72-2.29,9.25,9.25,0,0,0,2.2,2.13,6.78,6.78,0,0,0,1-.45c-2.79-1.65-4-5.47-1.68-7.85a3.73,3.73,0,0,1,1.45-.88,3.32,3.32,0,0,1,3.72,1.48,5,5,0,0,1,.16,3.49,6.71,6.71,0,0,1-2.91,3.85,8.64,8.64,0,0,1-3.87,1.29c-5.93.56-12.21-3.62-16.3-7.45-5.54-5.18-7.12-13.45-6.26-20.72a30.6,30.6,0,0,1,5.18-13.84l-1.49-.93a51,51,0,0,0-2.68,5.67,34.13,34.13,0,0,0-1.64,6.2A34.84,34.84,0,0,0,18.3,184c.22,1.15.5,2.3.82,3.43a20.13,20.13,0,0,0,6.05,9.13,34,34,0,0,0,8.91,5.88,15,15,0,0,0,6.82,1.37A9.44,9.44,0,0,0,47.18,201a7,7,0,0,0,1.76-6.48,7,7,0,0,1-2.06,7.32,10.08,10.08,0,0,1-7.5,2.31c-4.1-.31-8.19-2.5-11.5-4.82a29.67,29.67,0,0,1-7-6.8c-.38-.53-.74-1.08-1.07-1.65-1.9-3.32-2.39-7.44-2.7-11.19a35.9,35.9,0,0,1,1.25-12.63,36.49,36.49,0,0,1,1.36-3.93,30,30,0,0,1,1.95-3.89,11,11,0,0,0-1.7-.49,37,37,0,0,0-5.25,17.43c-.17,6.13.91,12,4.43,17a29.6,29.6,0,0,0,19,12.19,11.46,11.46,0,0,0,7.27-1.07C47.46,203.27,50.57,200.37,50.51,196.5Z"/></g></g><g id="_Group_8" data-name="&lt;Group&gt;"><polygon id="_Path_16" data-name="&lt;Path&gt;" class="cls-13" points="21.08 154.79 16.6 150.43 14.07 156.35 21.08 154.79 21.08 154.79"/><path id="_Compound_Path_4" data-name="&lt;Compound Path&gt;" class="cls-14" d="M20.21,154.59l-3.45-3.41-2,4.66,5.47-1.25Zm-1.37-.35-2-2-.94,2.64,2.95-.66Z"/><polygon id="_Path_17" data-name="&lt;Path&gt;" class="cls-15" points="18.01 154.09 17 153.08 16.49 154.4 18.01 154.09 18.01 154.09"/></g><g id="_Group_9" data-name="&lt;Group&gt;"><path id="_Path_18" data-name="&lt;Path&gt;" class="cls-13" d="M8.7,150.26A.91.91,0,0,1,9,149a.93.93,0,0,1,1.29.29.91.91,0,0,1-.27,1.27.93.93,0,0,1-1.28-.29Z"/><path id="_Path_19" data-name="&lt;Path&gt;" class="cls-16" d="M9.1,149.93a.38.38,0,0,1,.13-.58.54.54,0,0,1,.67.13.38.38,0,0,1-.13.58.54.54,0,0,1-.67-.13Z"/></g><g id="_Group_10" data-name="&lt;Group&gt;"><path id="_Path_20" data-name="&lt;Path&gt;" class="cls-13" d="M9.2,176.06a1.7,1.7,0,0,1,1.11-1.91A1.3,1.3,0,0,1,12,175.23a1.69,1.69,0,0,1-1.11,1.9,1.29,1.29,0,0,1-1.65-1.07Z"/><path id="_Path_21" data-name="&lt;Path&gt;" class="cls-17" d="M9.8,175.41a1.1,1.1,0,0,1,1.06-.86.73.73,0,0,1,.55,1,1.11,1.11,0,0,1-1.06.86.73.73,0,0,1-.55-1Z"/></g><g id="_Group_11" data-name="&lt;Group&gt;"><path id="_Path_22" data-name="&lt;Path&gt;" class="cls-13" d="M10.19,159.77a3.19,3.19,0,0,1,4.32.4,2.81,2.81,0,0,1-.66,4.06,3.18,3.18,0,0,1-4.32-.39,2.82,2.82,0,0,1,.66-4.07Z"/><path id="_Path_23" data-name="&lt;Path&gt;" class="cls-13" d="M8.92,166.35a1.71,1.71,0,0,1,2.24-.31,1.37,1.37,0,0,1,.25,2.05,1.7,1.7,0,0,1-2.24.31,1.38,1.38,0,0,1-.25-2.05Z"/><path id="_Path_24" data-name="&lt;Path&gt;" class="cls-18" d="M9.24,167a1,1,0,0,1,1.12-.84.92.92,0,0,1,.85,1,1,1,0,0,1-1.12.84.92.92,0,0,1-.85-1Z"/><path id="_Compound_Path_5" data-name="&lt;Compound Path&gt;" class="cls-19" d="M10.6,160a2.73,2.73,0,0,1,3.67.55,2.4,2.4,0,0,1-.83,3.43,2.72,2.72,0,0,1-3.67-.54A2.43,2.43,0,0,1,10.6,160Zm1.07.9a1.46,1.46,0,0,1,1.84.71,1.26,1.26,0,0,1-.77,1.68,1.47,1.47,0,0,1-1.84-.72,1.24,1.24,0,0,1,.77-1.67Z"/><path id="_Path_25" data-name="&lt;Path&gt;" class="cls-20" d="M12.49,161.57a1,1,0,0,1,.12,1.22.66.66,0,0,1-1-.09,1,1,0,0,1-.12-1.23.65.65,0,0,1,1,.1Z"/></g><g id="_Group_12" data-name="&lt;Group&gt;"><path id="_Path_26" data-name="&lt;Path&gt;" d="M15.4,142.6a2.7,2.7,0,0,1-.71,4.11,2.89,2.89,0,0,1-4.07-1,2.21,2.21,0,0,1,1-3.24,2.44,2.44,0,0,1,3.76.11Z"/><path id="_Path_27" data-name="&lt;Path&gt;" class="cls-21" d="M11.21,143.05a1.85,1.85,0,0,0-.47,1.95,2.51,2.51,0,0,0,2.56,1.66,2.48,2.48,0,0,0,2.27-2,2.13,2.13,0,0,0-1.47-2.45,1.79,1.79,0,0,0-2.39,1.93,1.06,1.06,0,0,0,1.61.92.69.69,0,0,0,.26-1c-.55-.66-1.13.13-.72.25.22,0,.17.28-.06.32-.56.08-.74-.63-.32-1.08a1,1,0,0,1,1.58.32,1.31,1.31,0,0,1-1,1.95,2,2,0,0,1-1.88-2.8Z"/></g></g><g id="_Group_13" data-name="&lt;Group&gt;"><path id="_Path_28" data-name="&lt;Path&gt;" d="M185.91,75.65v.47a18.55,18.55,0,0,0,2.28,7.93,30,30,0,0,0,5,7.29,14.72,14.72,0,0,0,3.72,2.86l-1-2.63c-.44-1-1-2.1-1.47-3.31,3.83,6.33,7.69,7.32,7.69,7.32A62,62,0,0,1,197.5,86a11.24,11.24,0,0,0,4.88,3.79s-5.58-8.7-6.65-14.31l1.24.12-2.88-4.51,2-3.89-4.54.21-2.81-4-1.76,5L182.13,68l2.13,3.89-2.64,4.49Z"/><g id="_Group_14" data-name="&lt;Group&gt;"><path id="_Path_29" data-name="&lt;Path&gt;" class="cls-22" d="M201,88.77c-1-1.18-5-8.86-6.12-13.47h-2.8l-1,1.7c.77,8.67,5.38,13.18,9.8,17.6-2.26-3.39-3.9-7.69-5.86-12.58-1-2.09-2.23-3.8-2.35-6.29A30.8,30.8,0,0,0,201,88.77Z"/><polygon id="_Path_30" data-name="&lt;Path&gt;" class="cls-23" points="193.23 71.16 195.53 74.76 191.57 74.38 191.64 73.57 192.68 73.66 191.61 71.4 192.81 69.01 190.68 69.6 189.44 67.42 188.14 69.69 187.5 69.69 187.5 69.3 188.89 64.88 191.19 68.22 195.06 67.92 193.23 71.16"/><path id="_Path_31" data-name="&lt;Path&gt;" class="cls-24" d="M190.63,77.93c.55,5.4,3.22,11,4.8,14.51-3.8-3-8.77-10.93-8.78-16.33l2.95,3.64Z"/><polygon id="_Path_32" data-name="&lt;Path&gt;" class="cls-9" points="191.9 69.7 190.92 71.48 191.85 73.22 190.04 73.07 189.26 74.83 188.3 73.16 186.92 72.73 187.53 71.69 186.33 70.31 188.59 70.31 189.43 68.71 190.26 70.26 191.9 69.7"/><polygon id="_Path_33" data-name="&lt;Path&gt;" class="cls-23" points="191.64 73.57 191.57 74.38 189.43 78.65 187.33 74.58 182.81 75.58 185.12 71.91 183.23 68.71 187.5 69.3 187.5 69.69 185.12 69.69 186.9 71.67 185.81 73 188.06 73.58 189.31 75.93 190.71 73.49 191.64 73.57"/></g></g><g id="_Group_15" data-name="&lt;Group&gt;"><path id="_Compound_Path_6" data-name="&lt;Compound Path&gt;" d="M587.83,195.1l.1-.08a1.11,1.11,0,0,1,.31.26,1.39,1.39,0,0,1,.21.37,1.62,1.62,0,0,0,1.61,1.15h.1a4.14,4.14,0,0,1,.55.07,3.83,3.83,0,0,0,.68.08,1.31,1.31,0,0,0,1.33-1c.14-.45.16-.52.69-.52l.51,0,.28,0a1.65,1.65,0,0,0,1.52-.9l0-.1a1.2,1.2,0,0,0,.37-.76h0a.88.88,0,0,1,.23-.06c.57-.1,1-.29,1-.89,0-.07,0-.18.41-.45a1.51,1.51,0,0,0,.54-1.25c0-.54.1-.57.29-.62a1.26,1.26,0,0,0,.94-1.26c0-.31.06-.42.24-.55a1.82,1.82,0,0,0,.69-1.71,1.78,1.78,0,0,0-.75-1.47l-.15-.07.07-.15a.77.77,0,0,0-.2-1,1,1,0,0,0-.52-1l0-.09c.41-.28.81-.77.56-2-.07-.36-.49-2.17-1.54-2.8a1.34,1.34,0,0,0-.39-.16c-.15-.05-.19-.06-.3-.3a1,1,0,0,0-.92-.5,1.48,1.48,0,0,0-1.44-1.23c-.39,0-.44-.1-.65-.42a3.93,3.93,0,0,0-.37-.49,2,2,0,0,0-1.43-.81,1.25,1.25,0,0,0-.85.34c-.14.12-.2.12-.24.12a2,2,0,0,1-.41-.1l-.26-.08a2.47,2.47,0,0,0-1.7.21l-.37.18a2.42,2.42,0,0,1-.92.32h0a2.33,2.33,0,0,1-.71-.23,3.67,3.67,0,0,0-.83-.3,3.05,3.05,0,0,0-2.64.83,4.23,4.23,0,0,0-1.19,2.36,1.85,1.85,0,0,0,0,.23,3.38,3.38,0,0,1-.11.52,3,3,0,0,1-1.12,1.22l-.45.36a3.42,3.42,0,0,0-1.31,2,1.34,1.34,0,0,0,.35,1c.95,1.1.95,1.1.21,2.17a2.45,2.45,0,0,0-.43,2.24c.09.26.56,1.6,1.52,2a2.2,2.2,0,0,0,.59.12c.07,0,.16,0,.18,0a1.36,1.36,0,0,1,.08.87,1.68,1.68,0,0,0,1.15,2.13,2.31,2.31,0,0,1,1,.79,4.56,4.56,0,0,0,2.59,1.7A1.66,1.66,0,0,0,587.83,195.1Zm7.16-4.85a.39.39,0,0,1,0,.11.27.27,0,0,1-.11-.15.17.17,0,0,1,0-.1A.23.23,0,0,1,595,190.25Zm-1.64-7.52a.18.18,0,0,1,.13-.1.23.23,0,0,1,.2.16.33.33,0,0,1,0,.22.2.2,0,0,1-.09.09.23.23,0,0,1-.24-.17A.28.28,0,0,1,593.35,182.73Z"/><g id="_Group_16" data-name="&lt;Group&gt;"><path id="_Compound_Path_7" data-name="&lt;Compound Path&gt;" class="cls-25" d="M599.48,186a1.58,1.58,0,0,1,0,2.16c-.86.57-.14,1.49-1,1.72-1.1.29-.45,1.57-1,2-1.22.83-.16,1.07-1.2,1.25s-.51.6-.91,1c-.23.22-.33.94-1.38.82-1.38-.15-1.61.18-1.83.91-.31,1-1.23.43-2,.45-1.1,0-1-.87-1.44-1.35-1.08-1.11-1.07.16-2,.08a4,4,0,0,1-2.13-1.43c-.86-1.31-2.5-.87-2.1-2.45a1.86,1.86,0,0,0-.13-1.27c-.23-.49-.65-.29-1.09-.46a2.57,2.57,0,0,1-1.16-1.58,1.88,1.88,0,0,1,.35-1.72c1-1.39.87-1.62-.26-2.9-.63-.72.38-1.76.9-2.19s1.47-1,1.75-1.85a4.81,4.81,0,0,0,.17-.84,3.68,3.68,0,0,1,1-2,2.44,2.44,0,0,1,2.11-.68,12.31,12.31,0,0,0,1.62.54,3.82,3.82,0,0,0,1.57-.54,2,2,0,0,1,1.29-.19c.58.17.95.39,1.47-.07s.85-.23,1.45.43.47,1,1.42,1.11a.9.9,0,0,1,.92.85c.1.64.78.19.93.53.31.67.65.55.93.72a4.05,4.05,0,0,1,1.27,2.41c.27,1.3-.4,1.33-.47,1.49-.66,1.51.38.4.38,1.45,0,.5.44.34.27.69C598.74,185.74,599,185.75,599.48,186Zm-3,.68a1.51,1.51,0,0,0-.33-2.21,1.78,1.78,0,0,0-2.36.45,1.51,1.51,0,0,0,.34,2.21A1.78,1.78,0,0,0,596.51,186.65Zm-.56-4.27a.72.72,0,0,0,.61-1,1.1,1.1,0,0,0-1.2-.66.72.72,0,0,0-.6,1A1.09,1.09,0,0,0,596,182.38Zm-.91,8.29a.56.56,0,0,0,.42-.61.49.49,0,0,0-.64-.26.56.56,0,0,0-.41.61A.47.47,0,0,0,595,190.67Zm-1.41-7.46a.38.38,0,0,0,.27-.47.39.39,0,0,0-.51-.21.38.38,0,0,0-.27.47A.4.4,0,0,0,593.63,183.21Zm-1.12-2.39a1.41,1.41,0,0,0,1.13-2,2.24,2.24,0,0,0-2.44-1.27,1.41,1.41,0,0,0-1.13,2A2.24,2.24,0,0,0,592.51,180.82Zm-.3,12.62a.85.85,0,0,0,.66-1.27,1.67,1.67,0,0,0-1.74-.76.85.85,0,0,0-.66,1.27A1.66,1.66,0,0,0,592.21,193.44Zm-1.31-3.31a1.28,1.28,0,0,0,.69-1.76,1.47,1.47,0,0,0-1.86-.73,1.29,1.29,0,0,0-.69,1.76A1.47,1.47,0,0,0,590.9,190.13Zm-.17-4.37a2.1,2.1,0,0,0,.66-3,2.48,2.48,0,0,0-3.25-.7,2.11,2.11,0,0,0-.67,3A2.49,2.49,0,0,0,590.73,185.76ZM588,179.89a.87.87,0,0,0,.25-1.22.89.89,0,0,0-1.23-.28.87.87,0,0,0-.25,1.22A.9.9,0,0,0,588,179.89Zm-1.23,13.05a1.56,1.56,0,0,0,1.47-1.9A2.11,2.11,0,0,0,586,189.4a1.57,1.57,0,0,0-1.47,1.91A2.12,2.12,0,0,0,586.72,192.94ZM585,181.86c0-.82-.54-1.31-1.24-1.09a2.12,2.12,0,0,0-1.28,1.89c0,.83.55,1.31,1.24,1.09A2.08,2.08,0,0,0,585,181.86Zm-1,5.53a1.07,1.07,0,0,0,0-1.36.76.76,0,0,0-1.16-.16,1.05,1.05,0,0,0,0,1.35A.76.76,0,0,0,584,187.39Z"/><path id="_Path_34" data-name="&lt;Path&gt;" class="cls-26" d="M596.15,181.51c.09.22,0,.4-.22.4a.68.68,0,0,1-.55-.41c-.09-.22,0-.4.22-.4A.7.7,0,0,1,596.15,181.51Z"/><path id="_Path_35" data-name="&lt;Path&gt;" class="cls-27" d="M596.07,185.12a1.12,1.12,0,0,1-.64,1.36,1.69,1.69,0,0,0-.47-1.88A.93.93,0,0,1,596.07,185.12Z"/><path id="_Path_36" data-name="&lt;Path&gt;" class="cls-28" d="M594.55,184.79a1.38,1.38,0,0,1,.44,1.81.91.91,0,0,1-.92-.55A1.1,1.1,0,0,1,594.55,184.79Z"/><path id="_Path_37" data-name="&lt;Path&gt;" class="cls-27" d="M592.76,178.66a.92.92,0,0,1,.15,1.38,2.29,2.29,0,0,0-2-1.64A1.63,1.63,0,0,1,592.76,178.66Z"/><path id="_Path_38" data-name="&lt;Path&gt;" class="cls-28" d="M592.05,192a.54.54,0,0,1,.31.5.53.53,0,0,1-.39.39Z"/><path id="_Path_39" data-name="&lt;Path&gt;" class="cls-28" d="M592.15,179.44a1.62,1.62,0,0,1,.38.83,1.93,1.93,0,0,1-.43.08Z"/><path id="_Path_40" data-name="&lt;Path&gt;" class="cls-28" d="M592,179.28l-.06,1.06a1.67,1.67,0,0,1-.31-.05l.07-1.23A1.66,1.66,0,0,1,592,179.28Z"/><path id="_Path_41" data-name="&lt;Path&gt;" class="cls-28" d="M591.92,192l-.1,1h-.25l.1-1A1,1,0,0,1,591.92,192Z"/><path id="_Path_42" data-name="&lt;Path&gt;" class="cls-28" d="M591.54,179l-.07,1.27h-.05l-.2-.1.08-1.24Z"/><path id="_Path_43" data-name="&lt;Path&gt;" class="cls-28" d="M591.53,191.89l-.1,1a.86.86,0,0,1-.21-.07l.1-.93Z"/><path id="_Path_44" data-name="&lt;Path&gt;" class="cls-27" d="M591.2,188.57a.7.7,0,0,1-.36.94,2.79,2.79,0,0,0-.36-1.47A1,1,0,0,1,591.2,188.57Z"/><path id="_Path_45" data-name="&lt;Path&gt;" class="cls-28" d="M591.18,192l-.08.8a.49.49,0,0,1-.23-.39.44.44,0,0,1,.27-.39Z"/><path id="_Path_46" data-name="&lt;Path&gt;" class="cls-28" d="M591.15,178.86l-.07,1.19a1,1,0,0,1-.22-.18l.06-1Z"/><path id="_Path_47" data-name="&lt;Path&gt;" class="cls-27" d="M590.93,182.86a1.47,1.47,0,0,1-.2,2,2,2,0,0,0-.4-1.73,2.42,2.42,0,0,0-1.57-.93A2,2,0,0,1,590.93,182.86Z"/><path id="_Path_48" data-name="&lt;Path&gt;" class="cls-28" d="M590.77,178.85l0,.87a1,1,0,0,1-.22-.79A1.38,1.38,0,0,1,590.77,178.85Z"/><path id="_Path_49" data-name="&lt;Path&gt;" class="cls-28" d="M590.54,189.6a1,1,0,0,1-1.06-.53.71.71,0,0,1,.47-1A1.81,1.81,0,0,1,590.54,189.6Z"/><path id="_Path_50" data-name="&lt;Path&gt;" class="cls-28" d="M589.85,183.38a1.62,1.62,0,0,1,.18,1.87,2,2,0,0,1-2.1-.68,1.47,1.47,0,0,1,.13-1.93c0,.57-.09,1.06-.08,1.31.08-.27.18-.82.3-1.43a1.25,1.25,0,0,1,.32,0,17.92,17.92,0,0,0-.16,2c.1-.35.24-1.11.38-1.91a1.83,1.83,0,0,1,.32.14,21,21,0,0,0-.17,2.11c.1-.36.24-1.15.39-2a2.42,2.42,0,0,1,.31.25,16.44,16.44,0,0,0-.27,1.91C589.51,184.77,589.68,184.11,589.85,183.38Z"/><path id="_Path_51" data-name="&lt;Path&gt;" class="cls-28" d="M587.81,178.86a.41.41,0,1,1-.69.44.4.4,0,0,1,.11-.57A.43.43,0,0,1,587.81,178.86Z"/><path id="_Path_52" data-name="&lt;Path&gt;" class="cls-27" d="M587.08,190.13a1.34,1.34,0,0,1,.33,2,2.09,2.09,0,0,0-.78-1.53,3.55,3.55,0,0,0-1.13-.63A1.44,1.44,0,0,1,587.08,190.13Z"/><path id="_Path_53" data-name="&lt;Path&gt;" class="cls-28" d="M586.86,191.44a1.83,1.83,0,0,1,.32.82,1.21,1.21,0,0,1-.46.12Z"/><path id="_Path_54" data-name="&lt;Path&gt;" class="cls-28" d="M586.73,191.26l-.17,1.11a2,2,0,0,1-.34-.06l.22-1.36A2.13,2.13,0,0,1,586.73,191.26Z"/><path id="_Path_55" data-name="&lt;Path&gt;" class="cls-28" d="M586.3,190.84l-.23,1.41a1.59,1.59,0,0,1-.31-.17l.23-1.44A3.28,3.28,0,0,1,586.3,190.84Z"/><path id="_Path_56" data-name="&lt;Path&gt;" class="cls-28" d="M585.85,190.55l-.23,1.42a1.61,1.61,0,0,1-.28-.3l.21-1.26Z"/><path id="_Path_57" data-name="&lt;Path&gt;" class="cls-28" d="M585.4,190.35l-.18,1.12a1.24,1.24,0,0,1,0-1.18Z"/><path id="_Path_58" data-name="&lt;Path&gt;" class="cls-28" d="M584.2,181.36a.65.65,0,0,1,.23.59,1.6,1.6,0,0,1-.78,1.3c-.42.18-.73-.09-.71-.61a1.67,1.67,0,0,1,.21-.72,7.14,7.14,0,0,0,0,.84c.05-.23.11-.63.17-1.1a1.42,1.42,0,0,1,.25-.24c0,.6,0,1.12,0,1.38.07-.29.14-.85.22-1.48a.57.57,0,0,1,.25,0c0,.46,0,.85,0,1.06A9.88,9.88,0,0,0,584.2,181.36Z"/><path id="_Path_59" data-name="&lt;Path&gt;" class="cls-28" d="M583.73,186.32a.55.55,0,0,1,0,.7.42.42,0,0,1-.61-.14.54.54,0,0,1,0-.7A.4.4,0,0,1,583.73,186.32Z"/></g></g><g id="_Group_17" data-name="&lt;Group&gt;"><path id="_Path_60" data-name="&lt;Path&gt;" class="cls-13" d="M577.06,195.2a1.43,1.43,0,0,1,1.08-1.6,1.25,1.25,0,0,1,1.47,1.08,1.42,1.42,0,0,1-1.08,1.59,1.23,1.23,0,0,1-1.47-1.07Z"/><path id="_Path_61" data-name="&lt;Path&gt;" class="cls-13" d="M575.18,192.62a1,1,0,0,1,.3-1.47,1.11,1.11,0,0,1,1.49.38,1,1,0,0,1-.31,1.47,1.1,1.1,0,0,1-1.48-.38Z"/><path id="_Path_62" data-name="&lt;Path&gt;" class="cls-29" d="M577.59,194.79a.76.76,0,0,1,.84-.66.77.77,0,0,1,.77.75.81.81,0,0,1-1.61-.09Z"/><path id="_Path_63" data-name="&lt;Path&gt;" class="cls-30" d="M575.7,192.6a.49.49,0,0,1-.11-.75.69.69,0,0,1,.87-.15.5.5,0,0,1,.11.76.69.69,0,0,1-.87.14Z"/></g><g id="_Group_18" data-name="&lt;Group&gt;"><path id="_Path_64" data-name="&lt;Path&gt;" d="M609.85,170.73a2.69,2.69,0,0,1-.71,4.1,2.87,2.87,0,0,1-4.07-1,2.22,2.22,0,0,1,1-3.25,2.44,2.44,0,0,1,3.76.12Z"/><path id="_Path_65" data-name="&lt;Path&gt;" class="cls-31" d="M605.66,171.18a1.83,1.83,0,0,0-.46,1.95,2.51,2.51,0,0,0,4.82-.33,2.12,2.12,0,0,0-1.47-2.45,1.78,1.78,0,0,0-2.39,1.92,1.06,1.06,0,0,0,1.61.92.68.68,0,0,0,.26-1c-.55-.65-1.13.14-.72.25.22.06.17.29,0,.32-.56.09-.75-.62-.33-1.07a1,1,0,0,1,1.58.31,1.31,1.31,0,0,1-1,1.95,2,2,0,0,1-1.88-2.79Z"/></g><g id="_Group_19" data-name="&lt;Group&gt;"><path id="_Path_66" data-name="&lt;Path&gt;" class="cls-13" d="M137.83,154.12a2,2,0,0,1,.81-2.59,1.84,1.84,0,0,1,2.58.6,2,2,0,0,1-.82,2.58,1.83,1.83,0,0,1-2.57-.59Z"/><path id="_Compound_Path_8" data-name="&lt;Compound Path&gt;" class="cls-17" d="M138.23,153.78a1.33,1.33,0,0,1,.45-2,1.72,1.72,0,0,1,2.2.46,1.33,1.33,0,0,1-.44,2,1.73,1.73,0,0,1-2.21-.46Zm.6-.39a.75.75,0,0,1,.27-1,.72.72,0,0,1,1,.23.76.76,0,0,1-.28,1,.7.7,0,0,1-1-.23Z"/><path id="_Path_67" data-name="&lt;Path&gt;" class="cls-32" d="M139.36,153.37a.44.44,0,0,1-.21-.55.35.35,0,0,1,.5-.19.47.47,0,0,1,.2.56.34.34,0,0,1-.49.18Z"/></g><g id="_Group_20" data-name="&lt;Group&gt;"><path id="_Path_68" data-name="&lt;Path&gt;" class="cls-13" d="M120.21,151.1a1.68,1.68,0,0,1,.41-2.21,1.41,1.41,0,0,1,2,.51,1.66,1.66,0,0,1-.41,2.2,1.41,1.41,0,0,1-2-.5Z"/><path id="_Path_69" data-name="&lt;Path&gt;" class="cls-33" d="M120.48,150.88a1,1,0,0,1,.33-1.39,1,1,0,0,1,1.38.32,1,1,0,0,1-.34,1.38,1,1,0,0,1-1.37-.31Z"/></g><g id="_Group_21" data-name="&lt;Group&gt;"><path id="_Path_70" data-name="&lt;Path&gt;" class="cls-13" d="M149.91,155.07a1.06,1.06,0,0,1,.18-1.5,1.08,1.08,0,0,1,1.51.21,1.06,1.06,0,0,1-.18,1.5,1.08,1.08,0,0,1-1.51-.21Z"/><path id="_Path_71" data-name="&lt;Path&gt;" class="cls-13" d="M147,154.3a1.32,1.32,0,0,1-.49-1.73,1.16,1.16,0,0,1,1.62-.53,1.3,1.3,0,0,1,.49,1.73,1.16,1.16,0,0,1-1.62.53Z"/><path id="_Path_72" data-name="&lt;Path&gt;" class="cls-34" d="M147.21,153.94a.93.93,0,0,1-.36-1.1.63.63,0,0,1,.94-.28.94.94,0,0,1,.35,1.1.62.62,0,0,1-.93.28Z"/><path id="_Path_73" data-name="&lt;Path&gt;" class="cls-35" d="M150.34,154.84a.67.67,0,0,1,.07-1,.64.64,0,0,1,.92.18.68.68,0,0,1-.06,1,.67.67,0,0,1-.93-.18Z"/></g><g id="_Group_22" data-name="&lt;Group&gt;"><path id="_Compound_Path_9" data-name="&lt;Compound Path&gt;" d="M126.14,153.28c-.07-.24.09-.33.24-.4a10.72,10.72,0,0,0,1.39-.87,4.36,4.36,0,0,0,.14-.94c0-.31.07-.63.12-.94,0,0,0-.08.06-.12.2,0,.28.12.38.23l.59.75.17.21,1.76-.62c.19.17.2.21.07.39l-.63,1a1.89,1.89,0,0,0-.11.25l.91,1,.16.17c.1.14.09.18-.06.36a7.6,7.6,0,0,0-1.91,0c-.18.28-.36.57-.55.85a3.94,3.94,0,0,1-.54.81c-.15,0-.18-.08-.19-.18l-.06-.89-.09-.74A10.5,10.5,0,0,0,126.14,153.28Zm3.8-.92A.55.55,0,0,1,130,152c.15-.2.3-.4.44-.61a.84.84,0,0,0,.21-.4c-.29.12-.55.18-.8.3l-.76.37-.09-.08-.68-.9c0-.06-.07-.14-.19-.09a7.58,7.58,0,0,1,0,.83c0,.27,0,.56-.15.81a4.23,4.23,0,0,0-1.15.83,2.1,2.1,0,0,0,.7.12l.7.09c.16.51,0,1,.19,1.53l.91-1.46,1.69.08A5.36,5.36,0,0,0,129.94,152.36Z"/><path id="_Path_74" data-name="&lt;Path&gt;" class="cls-36" d="M129.94,152.36a5.36,5.36,0,0,1,1.08,1l-1.69-.08-.91,1.46c-.17-.51,0-1-.19-1.53l-.7-.09a2.1,2.1,0,0,1-.7-.12,4.23,4.23,0,0,1,1.15-.83c.17-.25.1-.54.15-.81a7.58,7.58,0,0,0,0-.83c.12,0,.15,0,.19.09l.68.9.09.08.76-.37c.25-.12.51-.18.8-.3a.84.84,0,0,1-.21.4c-.14.21-.29.41-.44.61A.55.55,0,0,0,129.94,152.36Z"/></g><g id="_Group_23" data-name="&lt;Group&gt;"><path id="_Path_75" data-name="&lt;Path&gt;" class="cls-13" d="M378.29,93.32c-1.55-1.36-1.15-3.84.16-5.1a4.21,4.21,0,0,1,5.46-.1,3.23,3.23,0,0,1-.12,4.9,4.17,4.17,0,0,1-5.5.3Z"/><path id="_Path_76" data-name="&lt;Path&gt;" class="cls-37" d="M381.71,93.74a3.75,3.75,0,0,1-1.49.07c.22-.6.45-1.21.66-1.82a1.23,1.23,0,0,0,.47,0c.13.62.25,1.2.36,1.76Z"/><path id="_Path_77" data-name="&lt;Path&gt;" class="cls-38" d="M383.43,92.85a3.79,3.79,0,0,1-1.42.81c-.12-.59-.25-1.19-.4-1.78a1.16,1.16,0,0,0,.39-.31l1.43,1.28Z"/><path id="_Path_78" data-name="&lt;Path&gt;" class="cls-37" d="M384.44,91.12a3.29,3.29,0,0,1-.62,1.31c-.55-.4-1.1-.79-1.62-1.19a1.34,1.34,0,0,0,.1-.44l2.14.32Z"/><path id="_Path_79" data-name="&lt;Path&gt;" class="cls-38" d="M383.94,88.76a2.67,2.67,0,0,1,.57,1.89c-.79-.07-1.55-.13-2.23-.17a1.08,1.08,0,0,0-.11-.36c.63-.5,1.22-1,1.77-1.36Z"/><path id="_Path_80" data-name="&lt;Path&gt;" class="cls-37" d="M382.37,87.73a3.15,3.15,0,0,1,1.37.79c-.57.42-1.16.87-1.73,1.34a1.2,1.2,0,0,0-.44-.37c.28-.61.54-1.2.8-1.76Z"/><path id="_Path_81" data-name="&lt;Path&gt;" class="cls-38" d="M380.16,87.75a4,4,0,0,1,1.69-.13l-.66,1.75a1.06,1.06,0,0,0-.5,0c-.18-.58-.36-1.13-.53-1.67Z"/><path id="_Path_82" data-name="&lt;Path&gt;" class="cls-37" d="M378.6,88.63a3.63,3.63,0,0,1,1.07-.71c.23.58.45,1.15.67,1.68A1.23,1.23,0,0,0,380,90c-.49-.47-.95-.94-1.4-1.38Z"/><path id="_Path_83" data-name="&lt;Path&gt;" class="cls-38" d="M377.61,91a3.16,3.16,0,0,1,.55-1.81l1.69,1.31a1.7,1.7,0,0,0,0,.39c-.67,0-1.44,0-2.25.11Z"/><path id="_Path_84" data-name="&lt;Path&gt;" class="cls-38" d="M380.23,91.63a1.48,1.48,0,0,0,.29.22c-.24.66-.47,1.29-.7,1.88A3.11,3.11,0,0,1,378.5,93c.62-.51,1.2-1,1.73-1.38Z"/><path id="_Path_85" data-name="&lt;Path&gt;" class="cls-37" d="M378.29,92.79a2.84,2.84,0,0,1-.65-1.42c.85-.1,1.62-.17,2.3-.21a1.34,1.34,0,0,0,.12.24c-.56.41-1.16.88-1.77,1.39Z"/><path id="_Path_86" data-name="&lt;Path&gt;" class="cls-39" d="M380.56,91.41a1,1,0,0,1-.14-1.19.66.66,0,0,1,1,0,1,1,0,0,1,.15,1.2.67.67,0,0,1-1,0Z"/></g><g id="_Group_24" data-name="&lt;Group&gt;"><path id="_Compound_Path_10" data-name="&lt;Compound Path&gt;" d="M629.15,74.71l-1.1-.86L614.41,63.2v0a5.43,5.43,0,0,0,.79-.8c.27-.31.37-.38.19-.75-.09-.18-.19-.37-.3-.55l0-.06c.5-.54,1-1.08,1.46-1.64l.72-.87c.27-.32.37-.39.2-.77l-.26-.48.09-.1c.41-.45,1-1.07,1.09-1.24l.22-.29-.16-.34c-.74-1.55-2.74-4-4.55-4.68l-.31-.11s-.25.19-.25.2a5.25,5.25,0,0,0-1.14,1.3l0,0a4.56,4.56,0,0,0-.65-.34l-.3-.13-.27.19a7.51,7.51,0,0,0-1.4,1.52c-.13.14-1.33,1.6-1.32,1.6a3.39,3.39,0,0,1-.53-.2c-.56-.2-1.08.54-1.32,1a20,20,0,0,0-2.34-2l-2.63-2.21c-2.18-1.85-4.31-3.76-6.53-5.55-.87-.7-1.74-1.4-2.6-2.11l-1-.81-.38.42c-1.82,2-3.91,3.75-5.69,5.79l-.32.37.3.39c1.68,2.17,4.11,3.91,6.18,5.7,2.54,2.2,5.16,4.32,7.69,6.53l.16.15a11.64,11.64,0,0,1-.94.92,1.44,1.44,0,0,0-.6,1,3.92,3.92,0,0,0,.74,2.53,16.46,16.46,0,0,0,1.39,2c-.21.22-.41.43-.54.59.07-.09-1.2-1.21-1.33-1.31a8.3,8.3,0,0,0-1.6-1,6.6,6.6,0,0,0-3.2-.85c-1.51.09-1.5,2.2-1.77,3.28-.6,2.37-1.32,4.71-2,7.06l0,.06c0,.06,5.47,2.09,5.89,2.25l1.67.67c.81.33,2.19,1.38,3.09.9.56-.3.75-1.14.91-1.69a14.1,14.1,0,0,0,.38-2.25,10.17,10.17,0,0,0-.23-3.56c0-.11-.34-1-.31-1l.2-.19.88-.88c1.42,1.27,2.7,2,3.53,2,1.11,0,1.79-1.51,2.41-2.24l.2-.23.29.27c4.59,4.22,9.35,8.24,14.16,12.21l.38-.38C623.44,81.84,629.54,75,629.15,74.71Zm-35.69-6.17a20.92,20.92,0,0,1,2.15,3l-4.35,3.18ZM591.93,76l5.13-1.83a31.81,31.81,0,0,1,1.73,4.29Z"/><g id="_Group_25" data-name="&lt;Group&gt;"><path id="_Path_87" data-name="&lt;Path&gt;" class="cls-40" d="M627.53,74.2l.82.64c-.53.81-1.26,1.8-2.07,2.82l-.92-.78Z"/><polygon id="_Path_88" data-name="&lt;Path&gt;" class="cls-41" points="627.21 73.94 625.05 76.62 624.65 76.27 626.85 73.67 627.21 73.94"/><polygon id="_Path_89" data-name="&lt;Path&gt;" class="cls-40" points="626.47 73.37 624.29 75.97 623.04 74.9 625.15 72.34 626.47 73.37"/><path id="_Path_90" data-name="&lt;Path&gt;" class="cls-42" d="M625.87,78.23l-.52.72L610.74,66.19q.28-.3.57-.63Z"/><path id="_Path_91" data-name="&lt;Path&gt;" class="cls-40" d="M623.8,78.38l1.09,1c-.82,1-1.67,1.88-2.44,2.63l-1.09-.9Z"/><polygon id="_Path_92" data-name="&lt;Path&gt;" class="cls-41" points="624.76 72.03 622.66 74.58 622.29 74.27 624.32 71.69 624.76 72.03"/><polygon id="_Path_93" data-name="&lt;Path&gt;" class="cls-40" points="624.02 71.45 622.01 74.03 620.62 72.84 622.6 70.35 624.02 71.45"/><polygon id="_Path_94" data-name="&lt;Path&gt;" class="cls-41" points="623.52 78.14 621.09 80.84 620.75 80.56 623.18 77.84 623.52 78.14"/><path id="_Path_95" data-name="&lt;Path&gt;" class="cls-40" d="M622.9,77.6l-2.42,2.73-1.12-.94,2.37-2.81Z"/><polygon id="_Path_96" data-name="&lt;Path&gt;" class="cls-41" points="622.25 70.08 620.29 72.56 619.78 72.14 621.69 69.64 622.25 70.08"/><polygon id="_Path_97" data-name="&lt;Path&gt;" class="cls-41" points="621.44 76.32 619.07 79.14 618.65 78.79 621.01 75.94 621.44 76.32"/><polygon id="_Path_98" data-name="&lt;Path&gt;" class="cls-40" points="621.34 69.36 619.45 71.85 618.08 70.68 619.99 68.31 621.34 69.36"/><path id="_Path_99" data-name="&lt;Path&gt;" class="cls-40" d="M620.68,75.66l-2.35,2.86-1.49-1.26,2.39-2.88Z"/><polygon id="_Path_100" data-name="&lt;Path&gt;" class="cls-41" points="619.68 68.07 617.78 70.43 617.28 70.01 619.16 67.66 619.68 68.07"/><polygon id="_Path_101" data-name="&lt;Path&gt;" class="cls-41" points="618.91 74.1 616.52 76.99 616.03 76.57 618.39 73.65 618.91 74.1"/><polygon id="_Path_102" data-name="&lt;Path&gt;" class="cls-40" points="618.79 67.37 616.94 69.71 615.61 68.59 617.46 66.34 618.79 67.37"/><path id="_Path_103" data-name="&lt;Path&gt;" class="cls-40" d="M618,73.33l-2.37,2.93-1.35-1.16,2.38-2.94Z"/><path id="_Path_104" data-name="&lt;Path&gt;" class="cls-41" d="M618,55.55c-.11.14-.63.74-1.06,1.21a19.23,19.23,0,0,0-4.18-4.4,11.11,11.11,0,0,1,1-1.19C615.3,51.72,617.22,54,618,55.55Z"/><polygon id="_Path_105" data-name="&lt;Path&gt;" class="cls-41" points="617.09 66.05 615.26 68.29 614.9 67.98 616.73 65.76 617.09 66.05"/><path id="_Path_106" data-name="&lt;Path&gt;" class="cls-43" d="M617,58c0,.07-.18.22-.35.42a20.54,20.54,0,0,0-5.8-5.56c.31-.36.47-.58.51-.6C613,52.93,616,56,617,58Z"/><polygon id="_Path_107" data-name="&lt;Path&gt;" class="cls-40" points="616.41 65.51 614.6 67.73 613.37 66.67 615.13 64.52 616.41 65.51"/><polygon id="_Path_108" data-name="&lt;Path&gt;" class="cls-41" points="616.37 71.88 614 74.82 613.58 74.46 615.93 71.5 616.37 71.88"/><path id="_Path_109" data-name="&lt;Path&gt;" class="cls-42" d="M616.2,58.94c-.14.18-.89,1-1.49,1.68a19.25,19.25,0,0,0-5.9-5.45l.33-.41a17.89,17.89,0,0,1,1.77.89,9.3,9.3,0,0,0-1.6-1.09c.13-.17.27-.34.4-.49a16,16,0,0,1,1.63.83,8.23,8.23,0,0,0-1.47-1,5.06,5.06,0,0,1,.46-.49A15.63,15.63,0,0,1,616.2,58.94Z"/><path id="_Path_110" data-name="&lt;Path&gt;" class="cls-40" d="M615.66,71.26l-2.35,3L612,73.06l2.4-2.93Z"/><polygon id="_Path_111" data-name="&lt;Path&gt;" class="cls-41" points="614.87 64.31 613.12 66.46 612.78 66.18 614.57 64.07 614.87 64.31"/><path id="_Path_112" data-name="&lt;Path&gt;" class="cls-40" d="M614.27,63.84l-1.77,2.1-.86-.73,1.79-2Z"/><path id="_Path_113" data-name="&lt;Path&gt;" class="cls-43" d="M614.86,61.89a4.55,4.55,0,0,1-.81.83c-.88-1.58-3.59-5.15-7.18-6.55a2.22,2.22,0,0,1,.69-.92A16.45,16.45,0,0,1,614.86,61.89Z"/><path id="_Path_114" data-name="&lt;Path&gt;" class="cls-41" d="M614.08,69.88l-2.39,2.92-.62-.55,2.4-2.91Z"/><path id="_Path_115" data-name="&lt;Path&gt;" class="cls-40" d="M613.18,69.08,610.79,72l-1.09-1,2.38-2.9Z"/><path id="_Path_116" data-name="&lt;Path&gt;" class="cls-41" d="M611.79,67.87l-2.37,2.9-.43-.4,2.37-2.88Z"/><path id="_Path_117" data-name="&lt;Path&gt;" class="cls-40" d="M611.08,67.25l-2.35,2.88-.85-.78c.64-.73,1.51-1.68,2.48-2.74Z"/><path id="_Compound_Path_11" data-name="&lt;Compound Path&gt;" class="cls-42" d="M606.91,56.81a14.91,14.91,0,0,1,6.24,5.68C611,65,608.26,68,607.41,68.92a20.07,20.07,0,0,0-5.73-6.26c.19-.22.4-.48.65-.76a13.31,13.31,0,0,1,1.16.75,8.64,8.64,0,0,0-1-.91l.4-.45a20.17,20.17,0,0,1,1.77,1.2A9.76,9.76,0,0,0,603,61.08l.46-.52c.6.36,1.11.7,1.46,1a8.82,8.82,0,0,0-1.3-1.14l.61-.68c.42.26.77.5,1,.7a7.67,7.67,0,0,0-.92-.84c.23-.25.46-.5.69-.77.43.27.8.52,1.07.72a8.75,8.75,0,0,0-.93-.86l.88-1c.45.28.83.54,1.11.75a7.22,7.22,0,0,0-1-.9Zm1.61,6.65c.09-.08.88-1,1-1.09a4.7,4.7,0,0,0-2-2,12.05,12.05,0,0,0-.9,1.16A7,7,0,0,1,608.52,63.46Zm-1.59,1.84c.09-.08.77-1,.85-1a5.23,5.23,0,0,0-1.72-1.92,12,12,0,0,0-1,1.08A7.27,7.27,0,0,1,606.93,65.3Z"/><path id="_Path_118" data-name="&lt;Path&gt;" class="cls-44" d="M609,62.35c-.06.08-.36.43-.43.49a5.34,5.34,0,0,0-1.49-1.47,3.22,3.22,0,0,1,.43-.48A3.33,3.33,0,0,1,609,62.35Z"/><path id="_Path_119" data-name="&lt;Path&gt;" class="cls-44" d="M607.37,64.28a2.43,2.43,0,0,1-.34.38,5.35,5.35,0,0,0-1.41-1.44,3.38,3.38,0,0,1,.4-.46A3.69,3.69,0,0,1,607.37,64.28Z"/><path id="_Path_120" data-name="&lt;Path&gt;" class="cls-43" d="M607.38,70.15c-.3.35-.65.81-1.1,1.27-.83-1.78-4.13-6.44-7.47-7.71.16-.19.56-.6,1-1C602.82,63,606.26,67.89,607.38,70.15Z"/><path id="_Path_121" data-name="&lt;Path&gt;" class="cls-41" d="M602.78,67.46c1.84,2.14,3.37,4.22,3,4.62s-1.69-.14-3.55-1.83c.23-.24.45-.45.6-.62a2,2,0,0,0-1.61-2c-.18.19-.46.49-.77.8-1.57-1.87-2.37-3.65-2-4S601,65.33,602.78,67.46Z"/><path id="_Path_122" data-name="&lt;Path&gt;" class="cls-40" d="M605.48,55.62l.73.65-2.1,2.51-.77-.67Z"/><polygon id="_Path_123" data-name="&lt;Path&gt;" class="cls-41" points="605.2 55.38 603.06 57.87 602.75 57.6 604.89 55.12 605.2 55.38"/><path id="_Path_124" data-name="&lt;Path&gt;" class="cls-40" d="M604.6,54.86l-2.13,2.49-1-.88L603.57,54C603.94,54.3,604.28,54.6,604.6,54.86Z"/><path id="_Path_125" data-name="&lt;Path&gt;" class="cls-42" d="M589,46.26,603.76,59.2l-.65.79L588.49,46.78Z"/><polygon id="_Path_126" data-name="&lt;Path&gt;" class="cls-41" points="603.29 53.75 601.17 56.23 600.72 55.84 602.85 53.38 603.29 53.75"/><path id="_Path_127" data-name="&lt;Path&gt;" class="cls-40" d="M601.84,59.56l.93.84c-.75.88-1.41,1.64-1.82,2.06a1.44,1.44,0,0,0-.89-.23c-.09-.09-.21-.21-.35-.33Z"/><path id="_Path_128" data-name="&lt;Path&gt;" class="cls-40" d="M602.56,53.14l-2.11,2.46-1.26-1.09,2.1-2.44C601.73,52.43,602.16,52.79,602.56,53.14Z"/><path id="_Path_129" data-name="&lt;Path&gt;" class="cls-45" d="M601.29,68.1a2.51,2.51,0,0,1,1.13,1.29c-.44.46-1.47,1.5-1.83,1.85a4.37,4.37,0,0,0-.87-1.45C600,69.44,600.94,68.46,601.29,68.1Z"/><path id="_Path_130" data-name="&lt;Path&gt;" class="cls-41" d="M601.57,59.31l-2.12,2.35-.36-.31L601.27,59Z"/><path id="_Path_131" data-name="&lt;Path&gt;" class="cls-40" d="M601,58.8l-2.17,2.32-1-.89L600,57.85Z"/><polygon id="_Path_132" data-name="&lt;Path&gt;" class="cls-41" points="600.99 51.81 598.9 54.26 598.4 53.83 600.51 51.4 600.99 51.81"/><path id="_Path_133" data-name="&lt;Path&gt;" class="cls-43" d="M594.43,66.92c4.28.92,7.61,5.47,6,11.25A25.25,25.25,0,0,0,594.43,66.92Z"/><path id="_Path_134" data-name="&lt;Path&gt;" class="cls-40" d="M600.16,51.11l-2.1,2.42-1.26-1.09,2.09-2.39Z"/><path id="_Path_135" data-name="&lt;Path&gt;" class="cls-42" d="M600.08,78.72a2,2,0,0,1-.31,1c-1.19-4.79-4.22-10.26-6.93-12.65l.65-.22C595.41,68.15,599,73.73,600.08,78.72Z"/><polygon id="_Path_136" data-name="&lt;Path&gt;" class="cls-41" points="599.71 57.63 597.54 60.02 597.16 59.69 599.3 57.26 599.71 57.63"/><path id="_Path_137" data-name="&lt;Path&gt;" class="cls-40" d="M599,57l-2.15,2.45-1.31-1.11,2.21-2.48Z"/><polygon id="_Path_138" data-name="&lt;Path&gt;" class="cls-41" points="598.59 49.79 596.51 52.19 596 51.75 598.08 49.37 598.59 49.79"/><polygon id="_Path_139" data-name="&lt;Path&gt;" class="cls-40" points="597.78 49.11 595.71 51.49 594.39 50.26 596.53 48.07 597.78 49.11"/><polygon id="_Path_140" data-name="&lt;Path&gt;" class="cls-41" points="597.53 55.65 595.31 58.14 594.76 57.68 597.04 55.2 597.53 55.65"/><path id="_Path_141" data-name="&lt;Path&gt;" class="cls-40" d="M596.76,55l-2.28,2.49-1.28-1.08,2.32-2.53Z"/><path id="_Path_142" data-name="&lt;Path&gt;" class="cls-45" d="M596.68,73.66l-5.9,2.12,5.07-3.71C596.14,72.58,596.42,73.11,596.68,73.66Z"/><polygon id="_Path_143" data-name="&lt;Path&gt;" class="cls-41" points="596.2 47.79 594.07 49.97 593.65 49.57 595.76 47.43 596.2 47.79"/><polygon id="_Path_144" data-name="&lt;Path&gt;" class="cls-40" points="595.47 47.18 593.38 49.32 592.11 48.14 594.11 46.04 595.47 47.18"/><polygon id="_Path_145" data-name="&lt;Path&gt;" class="cls-41" points="595.2 53.54 592.87 56.08 592.37 55.66 594.64 53.05 595.2 53.54"/><path id="_Path_146" data-name="&lt;Path&gt;" class="cls-40" d="M594.31,52.76,592,55.38l-1.48-1.27,2.37-2.57Z"/><polygon id="_Path_147" data-name="&lt;Path&gt;" class="cls-41" points="593.85 45.83 591.87 47.92 591.44 47.52 593.4 45.46 593.85 45.83"/><path id="_Path_148" data-name="&lt;Path&gt;" class="cls-40" d="M593.08,45.19l-1.94,2.05-1.61-1.49c.86-.86,1.59-1.6,1.9-1.94Z"/><path id="_Path_149" data-name="&lt;Path&gt;" class="cls-41" d="M593,68.05l-1.64,4.39,1.16-4.87C592.69,67.72,592.85,67.89,593,68.05Z"/><path id="_Path_150" data-name="&lt;Path&gt;" class="cls-41" d="M592.64,51.29l-2.37,2.58-.52-.46,2.39-2.56Z"/><path id="_Path_151" data-name="&lt;Path&gt;" class="cls-40" d="M591.87,50.61l-2.39,2.56c-.42-.37-.83-.73-1.2-1.07l2.41-2.53Z"/><path id="_Path_152" data-name="&lt;Path&gt;" class="cls-41" d="M590.41,49.33,588,51.86c-.19-.17-.36-.34-.54-.49l2.47-2.46Z"/><path id="_Path_153" data-name="&lt;Path&gt;" class="cls-40" d="M589.6,48.61l-2.45,2.45a15.27,15.27,0,0,1-1.4-1.47c.42-.48,1.32-1.39,2.28-2.36Z"/><path id="_Path_154" data-name="&lt;Path&gt;" class="cls-41" d="M599,79.16c.06.19.12.39.17.59l-7.31-3.15Z"/></g></g><g id="_Group_26" data-name="&lt;Group&gt;"><path id="_Compound_Path_12" data-name="&lt;Compound Path&gt;" d="M630,19.7A6.27,6.27,0,0,0,625.19,16a5.63,5.63,0,0,0-3.82.71A9.77,9.77,0,0,0,619,18.93l-.28.34a9.28,9.28,0,0,0-3.2,0A4.77,4.77,0,0,0,613,20.43a6.89,6.89,0,0,0-1.62,7,7.71,7.71,0,0,0,2.21,3.18,9.72,9.72,0,0,0,3.42,2,10.92,10.92,0,0,0,2.84.55c-2.39,3.55-6.71,4.22-9.57,3.67A12.48,12.48,0,0,1,605.43,35a17.19,17.19,0,0,1-6.87-11.64,26.6,26.6,0,0,1-.11-7l-.44-.14a24.51,24.51,0,0,0-8.62-.67l-.83.06-.43,0-.06.43a24.89,24.89,0,0,0,.56,9.7,29.28,29.28,0,0,0,1.59,4.54,22.67,22.67,0,0,0,7.68,9.28l.14.1a30,30,0,0,0,6.43,3.52c.54.19,1.25.45,2,.67a16.7,16.7,0,0,0,1.82.4,18.51,18.51,0,0,0,7.66-.45A20.4,20.4,0,0,0,623,40.2a14.31,14.31,0,0,0,4.6-6.17l0,0a13,13,0,0,0,.53-1.85,12.54,12.54,0,0,0,.19-1.37,9,9,0,0,0-.15-2.63l0-.12.43-.62C630.47,24.74,631,22,630,19.7ZM620.69,28a7.45,7.45,0,0,1-2.21-.05,3.49,3.49,0,0,1-1.9-.82,1.15,1.15,0,0,1-.28-1c.21-.6,1.11-.62,1.63-.54A3.8,3.8,0,0,1,620.79,28Zm6.38-2.92c-.36-.51-.64-1.07-1-1.57a11,11,0,0,0-1.22-1.33,7,7,0,0,0-1.35-1.08l-1.05-.58a14,14,0,0,0-1.53-.71,3.64,3.64,0,0,1,3.54-1.63,4.11,4.11,0,0,1,2.93,2.25,4.56,4.56,0,0,1,.44,2.3,5.59,5.59,0,0,1-.23,1.22A2.84,2.84,0,0,1,627.07,25.12Z"/><g id="_Group_27" data-name="&lt;Group&gt;"><path id="_Path_155" data-name="&lt;Path&gt;" class="cls-11" d="M621.65,17.16c4.56-2.71,11.57,2.7,6.52,9.93a11,11,0,0,0-.64-1.57c3.2-5.87-3.57-10.69-7.07-6-.15-.05-.89-.2-1.05-.25A8.94,8.94,0,0,1,621.65,17.16Z"/><path id="_Path_156" data-name="&lt;Path&gt;" class="cls-46" d="M622.84,28.81a5,5,0,0,1-.77.36,5.56,5.56,0,0,0-1.92-3,3.54,3.54,0,0,0-3.81-.82c-1.12.57-.56,2.1.66,2.72a6.09,6.09,0,0,0,4,.47,5.85,5.85,0,0,1,.28.9,6.37,6.37,0,0,1-5.11-1c-1.41-1.1-2.4-3.75-.09-4.44a4.61,4.61,0,0,1,4.83,1.33A7,7,0,0,1,622.84,28.81Z"/><path id="_Compound_Path_13" data-name="&lt;Compound Path&gt;" class="cls-11" d="M627.69,31.77c.06-.35.1-.69.13-1-.86-.18-1.58-.36-2-.49.42,0,1.14.13,2,.25,0-.26,0-.53,0-.79a28.56,28.56,0,0,1-2.89-.77c.56.06,1.64.25,2.87.46a8.36,8.36,0,0,0-.12-1,23.81,23.81,0,0,1-2.46-.74c.49.06,1.37.24,2.4.45-.07-.31-.15-.63-.25-.94a23.76,23.76,0,0,1-2.4-.73c.48.07,1.32.23,2.3.44a9.63,9.63,0,0,0-.42-1c-1.27-.28-2.37-.55-2.91-.74.54.05,1.57.22,2.74.41-.18-.33-.37-.65-.58-1a27,27,0,0,1-2.8-.61c.52,0,1.47.15,2.57.29-.16-.21-.33-.42-.5-.62a24,24,0,0,1-2.69-.5c.49,0,1.38.09,2.41.19a8.65,8.65,0,0,0-.81-.79,22.47,22.47,0,0,1-2.45-.47c.45,0,1.2.08,2.1.16a14.07,14.07,0,0,0-1.37-1c-.88-.06-1.61-.13-2-.2.36,0,.93,0,1.62,0A11.13,11.13,0,0,0,619.33,20a8.92,8.92,0,0,0-3.71-.12,4.27,4.27,0,0,0-2.22,1,6.31,6.31,0,0,0-1.46,6.45A7.29,7.29,0,0,0,614,30.24a9.1,9.1,0,0,0,3.21,1.93c2.69.85,4.41.68,5.47-.37a9.45,9.45,0,0,0,.26-2.22,7.72,7.72,0,0,1-2,.49,7.29,7.29,0,0,1-5.55-1.54,3.45,3.45,0,0,1-1.43-2.59,2.77,2.77,0,0,1,1.37-2.41,5.56,5.56,0,0,1,6,1.14,6.59,6.59,0,0,1,2.31,5.09c-.13,4.17-3.42,7.84-7.22,9.32a12.31,12.31,0,0,1-2.74.73,14.41,14.41,0,0,1-5.95-.42,17.1,17.1,0,0,1-4.7-2,15.91,15.91,0,0,1-3-2.67,19.07,19.07,0,0,1-2.45-3.14c-.22-.36-.42-.73-.62-1.1-.35-.68-.65-1.3-.94-2a25.9,25.9,0,0,1-1.63-12.31c-.64-.06-1.29-.09-2-.11-.09,1.36.09,4.83.13,5.15a25.69,25.69,0,0,0,1.73,7.43A20.11,20.11,0,0,0,604.6,39.06a19.55,19.55,0,0,0,2.21.82,19,19,0,0,0,9.71.36,20,20,0,0,1-7.7.46,20.53,20.53,0,0,1-7.31-2.79,25.52,25.52,0,0,1-3.16-2.71,19.16,19.16,0,0,1-1.67-1.82,17.78,17.78,0,0,1-2-3.05,23.24,23.24,0,0,1-1.7-4.47,28.77,28.77,0,0,1-.91-5.62c0-.28-.09-3-.1-4.19-.5,0-1,0-1.52,0a25.08,25.08,0,0,0,1.1,11c.34,1,.78,2,1.22,3a17.44,17.44,0,0,0,3.08,4.56,16.92,16.92,0,0,0,1.72,1.67A24.06,24.06,0,0,0,603.23,40,34,34,0,0,0,610.3,42a19.08,19.08,0,0,1-9.87-3.25l-.2-.14c-3.14-2.21-6.37-4.88-8-8.46a32.48,32.48,0,0,1-1.34-3.43,26.24,26.24,0,0,1-1.12-5.83c0-.34,0-3.41.05-4.85-.42,0-.84.05-1.25.09a24.28,24.28,0,0,0,.55,9.49,28.26,28.26,0,0,0,1.55,4.45,22.13,22.13,0,0,0,7.49,9l.15.1a29.34,29.34,0,0,0,6.31,3.46c.65.23,1.3.46,2,.65a17.6,17.6,0,0,0,11.93-1,24.55,24.55,0,0,0,3.13-1.75c-.52,0-.94-.06-1.22-.1.33,0,.86-.06,1.49-.09.34-.24.67-.5,1-.77-.79,0-1.45-.07-1.83-.13.44,0,1.2-.08,2.1-.11.28-.25.56-.51.82-.78a19.6,19.6,0,0,1-2.13-.24c.48,0,1.35,0,2.36,0q.33-.35.63-.72a19.11,19.11,0,0,1-2-.31c.46,0,1.27,0,2.23.08.15-.19.3-.39.44-.59a18.16,18.16,0,0,1-2-.45c.45,0,1.24.11,2.17.23.18-.27.35-.55.52-.82a23.35,23.35,0,0,1-2.29-.57c.49,0,1.39.17,2.43.32.17-.3.33-.62.47-.93a21.45,21.45,0,0,1-2.29-.43c.49,0,1.37.09,2.4.18a10,10,0,0,0,.39-1,22.69,22.69,0,0,1-2.49-.54c.51,0,1.47.14,2.57.28a8.19,8.19,0,0,0,.26-1.06c-.68-.16-1.25-.3-1.58-.41C626.43,31.6,627,31.67,627.69,31.77Zm-13-1.48a5.75,5.75,0,0,1-2.26-3.05c-.54-1.85-.11-4.25,1.61-5.36a5.16,5.16,0,0,1,4.25-.23,5.4,5.4,0,0,0-2.65,0,3.38,3.38,0,0,0-2,1.12,4.9,4.9,0,0,0,.21,6.36,8.78,8.78,0,0,0,3.57,2.29,4.71,4.71,0,0,0,1.32.36A7.15,7.15,0,0,1,614.7,30.29Zm.22-7.4a2.68,2.68,0,0,0-.86.71,3.59,3.59,0,0,0-.69,2.4,3.89,3.89,0,0,0,.53,1.7c1.18,2,3.7,3.09,5.92,3.31a7.11,7.11,0,0,1-3.09-.6,8.11,8.11,0,0,1-2.56-1.81,4.13,4.13,0,0,1-.33-5.19c1-1.42,3.31-1.53,4.84-1a5.33,5.33,0,0,0-2.25,0A4.3,4.3,0,0,0,614.92,22.89Z"/><path id="_Compound_Path_14" data-name="&lt;Compound Path&gt;" class="cls-46" d="M620.41,33.46c-2.54,3.87-7.17,4.54-10.19,4a13.21,13.21,0,0,1-5.1-2,17.81,17.81,0,0,1-7.1-12,26,26,0,0,1-.17-6.64,12.42,12.42,0,0,0-2.39-.51l-.19,0v.46c0,.54,0,1.08,0,1.62a27,27,0,0,0,.2,3.25c.59,5,2.34,10,6,13.58a16.28,16.28,0,0,0,8.29,4.26c5.6,1.1,9.91-1.93,12.25-6.15A7.93,7.93,0,0,1,620.41,33.46Zm-16,2.76s4,2.79,8.31,2.36C609.91,39.35,605.79,37.68,604.41,36.22Z"/></g></g><g id="_Group_28" data-name="&lt;Group&gt;"><path id="_Path_157" data-name="&lt;Path&gt;" class="cls-13" d="M617.71,13.62a.92.92,0,0,1,.26-1.28.94.94,0,0,1,1.28.29.92.92,0,0,1-.26,1.28.94.94,0,0,1-1.28-.29Z"/><path id="_Path_158" data-name="&lt;Path&gt;" class="cls-47" d="M618.1,13.28a.38.38,0,0,1,.14-.57.52.52,0,0,1,.67.13.39.39,0,0,1-.14.58.54.54,0,0,1-.67-.14Z"/></g><g id="_Group_29" data-name="&lt;Group&gt;"><path id="_Path_159" data-name="&lt;Path&gt;" class="cls-13" d="M585.84,33.92a.92.92,0,0,1,.27-1.28.94.94,0,0,1,1.28.29.93.93,0,0,1-.26,1.28,1,1,0,0,1-1.29-.29Z"/><path id="_Path_160" data-name="&lt;Path&gt;" class="cls-16" d="M586.24,33.58a.38.38,0,0,1,.14-.58.52.52,0,0,1,.66.14.37.37,0,0,1-.13.57.52.52,0,0,1-.67-.13Z"/></g><g id="_Group_30" data-name="&lt;Group&gt;"><path id="_Path_161" data-name="&lt;Path&gt;" class="cls-13" d="M596.85,13.64a.92.92,0,0,1,.27-1.28.94.94,0,0,1,1.28.29.92.92,0,0,1-.26,1.28,1,1,0,0,1-1.29-.29Z"/><path id="_Path_162" data-name="&lt;Path&gt;" class="cls-16" d="M597.25,13.3a.38.38,0,0,1,.14-.58.52.52,0,0,1,.66.14.37.37,0,0,1-.13.57.52.52,0,0,1-.67-.13Z"/></g><g id="_Group_31" data-name="&lt;Group&gt;"><path id="_Path_163" data-name="&lt;Path&gt;" class="cls-13" d="M610.27,28.81a.76.76,0,0,1,.22-1.06.79.79,0,0,1,1.06.24.77.77,0,0,1-.22,1.06.79.79,0,0,1-1.06-.24Z"/><path id="_Path_164" data-name="&lt;Path&gt;" class="cls-13" d="M608.65,33.65a1.22,1.22,0,0,1,1.08-1.3,1.12,1.12,0,0,1,1.21,1.09,1.21,1.21,0,0,1-1.07,1.3,1.13,1.13,0,0,1-1.22-1.09Z"/><path id="_Path_165" data-name="&lt;Path&gt;" class="cls-16" d="M609.15,33.5a.67.67,0,0,1,.75-.51.6.6,0,0,1,.36.78.68.68,0,0,1-.74.51.6.6,0,0,1-.37-.78Z"/><path id="_Path_166" data-name="&lt;Path&gt;" class="cls-16" d="M610.57,28.53a.34.34,0,0,1,.16-.41.27.27,0,0,1,.4.09.33.33,0,0,1-.16.42.28.28,0,0,1-.4-.1Z"/></g><g id="_Group_32" data-name="&lt;Group&gt;"><path id="_Path_167" data-name="&lt;Path&gt;" class="cls-13" d="M587.57,39.81a1.94,1.94,0,0,1,.74-2.66,2,2,0,0,1,2.73.61,1.93,1.93,0,0,1-.74,2.66,2,2,0,0,1-2.73-.61Z"/><path id="_Compound_Path_15" data-name="&lt;Compound Path&gt;" class="cls-48" d="M587.92,39.67a1.63,1.63,0,0,1,.58-2.18,1.53,1.53,0,0,1,2.14.5,1.61,1.61,0,0,1-.58,2.17,1.53,1.53,0,0,1-2.14-.49Zm.58-.84a.87.87,0,0,1,.82-.89.83.83,0,0,1,.88.79.89.89,0,0,1-.83.9.83.83,0,0,1-.87-.8Z"/><path id="_Path_168" data-name="&lt;Path&gt;" class="cls-49" d="M588.89,38.81a.47.47,0,0,1,.45-.48.43.43,0,0,1,.46.43.46.46,0,0,1-.44.47.43.43,0,0,1-.47-.42Z"/></g><g id="_Group_33" data-name="&lt;Group&gt;"><path id="_Path_169" data-name="&lt;Path&gt;" class="cls-13" d="M605.22,30.4a1.62,1.62,0,0,1,.43-2.21,1.5,1.5,0,0,1,2.12.5,1.63,1.63,0,0,1-.43,2.22,1.51,1.51,0,0,1-2.12-.51Z"/><path id="_Path_170" data-name="&lt;Path&gt;" class="cls-50" d="M605.89,30.39a1.39,1.39,0,0,1-.18-1.68.86.86,0,0,1,1.39,0,1.37,1.37,0,0,1,.18,1.68.86.86,0,0,1-1.39,0Z"/></g><g id="_Group_34" data-name="&lt;Group&gt;"><path id="_Path_171" data-name="&lt;Path&gt;" class="cls-13" d="M607.75,16.58a3.2,3.2,0,0,1,1-4.38,3.12,3.12,0,0,1,4.32,1,3.19,3.19,0,0,1-.95,4.38,3.12,3.12,0,0,1-4.32-1Z"/><path id="_Compound_Path_16" data-name="&lt;Compound Path&gt;" class="cls-51" d="M608.1,16.36a2.78,2.78,0,0,1,.82-3.81,2.71,2.71,0,0,1,3.76.87,2.77,2.77,0,0,1-.83,3.81,2.7,2.7,0,0,1-3.75-.87Zm1-.45a1.33,1.33,0,0,1,.35-1.75,1.1,1.1,0,0,1,1.59.4,1.33,1.33,0,0,1-.35,1.75,1.1,1.1,0,0,1-1.59-.4Z"/><path id="_Path_172" data-name="&lt;Path&gt;" class="cls-52" d="M609.3,15a.74.74,0,0,1,.7-.67.55.55,0,0,1,.5.69.76.76,0,0,1-.7.67.56.56,0,0,1-.5-.69Z"/></g><g id="_Group_35" data-name="&lt;Group&gt;"><path id="_Path_173" data-name="&lt;Path&gt;" d="M607.58,20.32a2.7,2.7,0,0,1-.71,4.11,2.88,2.88,0,0,1-4.07-1,2.21,2.21,0,0,1,1-3.24,2.45,2.45,0,0,1,3.77.11Z"/><path id="_Path_174" data-name="&lt;Path&gt;" class="cls-31" d="M603.39,20.77a1.81,1.81,0,0,0-.47,1.95,2.52,2.52,0,0,0,4.83-.33,2.13,2.13,0,0,0-1.47-2.45,1.78,1.78,0,0,0-2.39,1.93,1.06,1.06,0,0,0,1.61.92.69.69,0,0,0,.26-1c-.55-.66-1.13.14-.72.25.21.06.17.28-.06.32-.56.08-.75-.62-.32-1.07a1,1,0,0,1,1.58.31,1.31,1.31,0,0,1-1,1.95c-1.4.1-2.36-1.23-1.88-2.8Z"/></g><g id="_Group_36" data-name="&lt;Group&gt;"><path id="_Path_175" data-name="&lt;Path&gt;" d="M568.29,164.16a10,10,0,0,0-9.77-8c-4.69,0-9.21,3.5-9.73,8.28a10,10,0,0,0,1.82,6.82,9.81,9.81,0,0,0,12.12,2.89,10.09,10.09,0,0,0,5.63-7.61A7.78,7.78,0,0,0,568.29,164.16Z"/><g id="_Group_37" data-name="&lt;Group&gt;"><path id="_Path_176" data-name="&lt;Path&gt;" class="cls-53" d="M557.94,174.61c-.14-.23-.39-.47-1.11-.44a2.63,2.63,0,0,1-2.17-1c-.45-.63-.68-1.56-1.16-1.9a8.92,8.92,0,0,0-2.18-1,6.71,6.71,0,0,1-1.08-.59A9,9,0,0,0,557.94,174.61Z"/><path id="_Path_177" data-name="&lt;Path&gt;" class="cls-54" d="M551.26,169.81a5.58,5.58,0,0,1,2.26,1,5.38,5.38,0,0,1,1.43,2,2.24,2.24,0,0,0,1.92,1c1,0,.78.38,1.27.48a.76.76,0,0,1,.46.42,10.22,10.22,0,0,0,3.53-.78c-.16-.13-.3-.2-.49-.36s-.7-.13-1.17-.24c-.84-.2-1.2-.77-2.09-.84s-.94-.23-1.63-.89a2.09,2.09,0,0,0-1.23-.63,2.11,2.11,0,0,1-1.38-.93c-.67-.69-1-.53-1.86-.93a2.11,2.11,0,0,1-1.15-1.18,3.59,3.59,0,0,0-.9-.76c-.23-.16-.54-.17-.8-.32a3.15,3.15,0,0,0,.05.43,8.3,8.3,0,0,0,.31,1.37A5.14,5.14,0,0,0,551.26,169.81Z"/><path id="_Path_178" data-name="&lt;Path&gt;" class="cls-53" d="M563.93,171.79a14.68,14.68,0,0,0-2.61-.68,3.88,3.88,0,0,0-2.21-.34c-.72,0-1.35-.56-1.92-1.2-.9-1-1-.66-1.29-.63-.57.09-.69-.49-1.22-.44s-.71-.58-1.88-.78a2.11,2.11,0,0,1-1.22-1.16c-.14-.41-.68-.75-1-1a8.08,8.08,0,0,0-1.22-.68c0,.24,0,.49,0,.74s0,.51,0,.77a1.8,1.8,0,0,0,.7.17,2.55,2.55,0,0,1,1.19.86,2,2,0,0,0,1.15,1.18c.85.4,1.19.25,1.85.94a2.2,2.2,0,0,0,1.39.93,2.11,2.11,0,0,1,1.23.62c.69.67,1,1,1.62.9.82-.17.92.56,1.75.76.47.12.85-.06,1.38.25.36.21.72,0,1.15.56.27-.14.52-.3.77-.46a10,10,0,0,0,1-.75A1.41,1.41,0,0,0,563.93,171.79Z"/><path id="_Path_179" data-name="&lt;Path&gt;" class="cls-54" d="M566.26,170.39a18,18,0,0,1-2.6-.71c-1.34-.68-1.67-.22-2.39-.19a3.35,3.35,0,0,1-3.22-1.52c-.59-.86-.83-.61-1.26-1.07s-.53-.86-1.43-.71a3.81,3.81,0,0,1-2.66-.76,17.13,17.13,0,0,0-2.48-1.81l-.62-.26a8.65,8.65,0,0,0-.21,1.13l.26.07a4.78,4.78,0,0,1,1.25.88c.31.22.72.37.87.78a1.69,1.69,0,0,0,1.18,1.2c1,0,1.28.79,1.73.7.87-.18.57.47,1.29.38a1.3,1.3,0,0,1,1.46.68,2.49,2.49,0,0,0,2,1.15c1.23-.19,1.61.34,2.18.32a5.82,5.82,0,0,1,2.58.78,3.44,3.44,0,0,1,.79.55A10,10,0,0,0,566.26,170.39Z"/><path id="_Path_180" data-name="&lt;Path&gt;" class="cls-53" d="M551.05,163.65a3.46,3.46,0,0,1,.76.34c.58.38.91,1,1.55,1.36a3.38,3.38,0,0,0,1.85.36,1.75,1.75,0,0,1,1.55.58c.33.46.81.37,1.32,1.18A3,3,0,0,0,561.2,169a3.52,3.52,0,0,1,2.94.35,4.37,4.37,0,0,0,2.55.32l0-.06a10,10,0,0,0,.67-1.48,2.47,2.47,0,0,0-2.34-.61,3.39,3.39,0,0,1-3.17-.57c-1.24-1-1.33-.05-2-.44-.91-.53-1.84-1.11-2-1.59s-.64-.48-.78-.76a1.59,1.59,0,0,0-1.7-.79c-.68.08-1.51.64-2.16.19-.23-.16-.38-.43-.63-.55a2.7,2.7,0,0,0-1-.09,1.91,1.91,0,0,1-1.11-.52,3.32,3.32,0,0,1-.41-.43,7,7,0,0,0-.34.86A5.28,5.28,0,0,0,551.05,163.65Z"/><path id="_Path_181" data-name="&lt;Path&gt;" class="cls-54" d="M566.25,164.71c-.74.19-1.14-.21-1.79-.41a18.56,18.56,0,0,0-3.37-.59c-1.33,0-1.47-.51-2.13-1-1-.76-1.38-.14-1.8-.57s-.73-.19-1.09-.55a2.36,2.36,0,0,0-1.63-.64c-.51,0-1.17.18-1.59-.21a4.72,4.72,0,0,1-.49-.81,1.26,1.26,0,0,0-.54-.4,8.44,8.44,0,0,0-1.55,2.12c.12.16.24.32.38.48a1.48,1.48,0,0,0,.86.58c.37,0,.75-.16,1.11-.06a3,3,0,0,1,.74.49c.73.47,1.3-.11,2-.18a1.68,1.68,0,0,1,1.76.8c.15.28.59.3.78.79a4.68,4.68,0,0,0,1.94,1.63c.66.38.76-.51,2,.44a3.56,3.56,0,0,0,3,.53c.57-.13,1.28-.61,2.62.71,0-.14.08-.28.12-.41a6.76,6.76,0,0,0,.21-1.7c0-.21,0-.42-.05-.63A2,2,0,0,0,566.25,164.71Z"/><path id="_Path_182" data-name="&lt;Path&gt;" class="cls-53" d="M564,162.57c-.52.46-1.42,0-2.3-.48-1.1-.54-1.67,0-2.29-.3s-1.41-.62-1.64-1-1.09-.57-1.66-1-1.52-.23-2.21-.44a2.15,2.15,0,0,1-1-.71,5.56,5.56,0,0,0-.54.42,1.1,1.1,0,0,1,.4.43c.08.15.11.31.18.45a1.19,1.19,0,0,0,1.19.66,8,8,0,0,1,.82-.18c.49,0,1,.41,1.42.57a2.21,2.21,0,0,1,1,.7c.34.4,1.24,0,1.82.55s.73,1,2.06,1a20.46,20.46,0,0,1,3.41.67,3.25,3.25,0,0,0,1.93.26,2,2,0,0,1,1.09.15,9,9,0,0,0-.79-2.39c-.47.07-.9.53-1.54.63C564.54,162.64,564.63,162,564,162.57Z"/><path id="_Path_183" data-name="&lt;Path&gt;" class="cls-54" d="M561.54,161.41c1.08.3,1.42.89,2,.45s.89.19,1.74.09a3.62,3.62,0,0,0,1.41-.47,9.32,9.32,0,0,0-8.16-4.7,9.56,9.56,0,0,0-5.47,1.69,2.24,2.24,0,0,0,1.16.55,3.63,3.63,0,0,0,1,0,2.77,2.77,0,0,1,2.06.9,6.72,6.72,0,0,0,2.23,1.44C560.44,161.68,560.69,161.18,561.54,161.41Z"/></g></g><g id="_Group_38" data-name="&lt;Group&gt;"><path id="_Compound_Path_17" data-name="&lt;Compound Path&gt;" d="M472.51,40.45a5.15,5.15,0,0,0,3.34,1.61,6.28,6.28,0,0,0,1,0,1.5,1.5,0,0,1,.42,0c.15,0,.25.23.36.34a4.24,4.24,0,0,0,1.16.94,1.28,1.28,0,0,0,.61.15,1,1,0,0,0,.43-.09c.61-.28.78-1.19.52-2.7l-.08-.48c0-.13.32-.53.39-.64a6.58,6.58,0,0,0,.42-.84,5.75,5.75,0,0,0-.76-5.93,5.11,5.11,0,0,0-3.73-1.51,5.61,5.61,0,0,0-1.54.21l-.28-.28c-1-1-1.86-1.35-2.52-1a1.09,1.09,0,0,0-.59.7c-.08.25-.26.85.49,2.68l-.25.44A5.65,5.65,0,0,0,472.51,40.45Z"/><g id="_Group_39" data-name="&lt;Group&gt;"><path id="_Path_184" data-name="&lt;Path&gt;" class="cls-55" d="M479.84,33.18a4.94,4.94,0,0,1,1,3.89c-.4-.46-.75-.83-1-1.06.18.3.52.77.94,1.32a5.42,5.42,0,0,1-.28,1c-.6-.69-1.12-1.26-1.43-1.57a21.39,21.39,0,0,0,1.33,1.82,5.51,5.51,0,0,1-.4.76c-.74-.9-1.39-1.69-1.75-2.08a25.05,25.05,0,0,0,1.58,2.32,4.54,4.54,0,0,1-.45.52c-.81-.94-1.52-1.78-1.91-2.18a25.17,25.17,0,0,0,1.7,2.37l-.35.28c-.57-.67-1.05-1.23-1.35-1.53a20,20,0,0,0,1.15,1.65,3.3,3.3,0,0,1-.45.26,41.29,41.29,0,0,1-2.83-4.21,41.41,41.41,0,0,1-2.06-3.7A4.82,4.82,0,0,1,479.84,33.18Z"/><path id="_Path_185" data-name="&lt;Path&gt;" class="cls-56" d="M479.73,40.77c.12.69.22,1.87-.18,2.06-.86.4-2.95-2.41-4.92-5.73-2.12-3.57-3-6-2.16-6.4.4-.19,1,.09,1.85.92a1.69,1.69,0,0,0-.32.27c-.48-.44-.81-.81-1.19-.63-.86.39.61,2.81,2.23,5.76s3.64,5.54,4.31,5.23c.24-.11.18-.63.09-1.22A2.5,2.5,0,0,0,479.73,40.77Z"/><path id="_Path_186" data-name="&lt;Path&gt;" class="cls-55" d="M476.9,41.42a5,5,0,0,1-.56.06c-.7-.82-1.3-1.52-1.65-1.87.23.39.72,1.08,1.32,1.87a4.78,4.78,0,0,1-.76-.09c-.71-.83-1.32-1.55-1.67-1.91a20.53,20.53,0,0,0,1.25,1.79A4.25,4.25,0,0,1,473,40.05a5,5,0,0,1-.57-5.78A61.11,61.11,0,0,0,476.9,41.42Z"/></g></g><g id="_Group_40" data-name="&lt;Group&gt;"><path id="_Path_187" data-name="&lt;Path&gt;" d="M345.61,64.3a7.44,7.44,0,0,0,1.05-.09,5.3,5.3,0,0,0,1.48-.51A10.37,10.37,0,0,0,351,61.57a9.78,9.78,0,0,0,2.76-5l.08-.45c1.05-.56,2.07-1.16,3.07-1.8s1.9-1.37,2.86-2A23.28,23.28,0,0,0,362,50.45a39.37,39.37,0,0,0,6-6.6,8.57,8.57,0,0,0,1.44-2.57l.55-.34a7.17,7.17,0,0,0,1.64-1.26,9.06,9.06,0,0,0,.84-1.07c-.46.07-.94.12-1.39.21a6.5,6.5,0,0,0-1.34.48,7.31,7.31,0,0,0-1,.5v0a4,4,0,0,0-1.11-.11,29.79,29.79,0,0,0-3.77.31,48.76,48.76,0,0,0-9.17,2c-1.19.38-2.37.82-3.53,1.32-.87.37-1.72.79-2.56,1.22l-.32-.18a10.9,10.9,0,0,0-5.38-1.3,9.61,9.61,0,0,0-5.6,1.53c-.2.16-.43.3-.63.45s-.63.63-.94.93c.17-.17.84.05,1,.1.46.13.92.2,1.37.35s.82.23,1.25.35a15.74,15.74,0,0,1,3.57,1.36l-.74.54c.07.34.12.68.21,1l0,.1-1.4.89.11.42c.05.19.14.44.25.73l-.92.66-.11,0a4.3,4.3,0,0,0-2.79-.08,3.68,3.68,0,0,1,1.08.71,3.22,3.22,0,0,0-1.48,1.07,4,4,0,0,0,1.38.24l-1.25,1.09a4.46,4.46,0,0,0,1.63.16,5.8,5.8,0,0,0-1,1.29,6,6,0,0,0,1.47,0,3.51,3.51,0,0,0-.94,1.37,7.51,7.51,0,0,0,1.83-.22,4.76,4.76,0,0,0-.34,1.17,3.78,3.78,0,0,0,1.24-.32,3.63,3.63,0,0,1-.44,1.48,4.48,4.48,0,0,1,.77-.21,3.79,3.79,0,0,0,.74-.41,2.77,2.77,0,0,0,1-1.36l0-.07.18-.06a7.61,7.61,0,0,0,.91-.37l.17-.07c.17.25.35.5.54.74s.26.14.45.16a4,4,0,0,0,1.3-.36l.16-.06h0l.18.15.14.11h.26l.29,0a11.61,11.61,0,0,1-1.21,3.17,12.9,12.9,0,0,1-2.11,2.38,2.6,2.6,0,0,1,.5.1Z"/><g id="_Group_41" data-name="&lt;Group&gt;"><path id="_Path_188" data-name="&lt;Path&gt;" class="cls-57" d="M371,39.42a10.49,10.49,0,0,1-1.4,1,1.4,1.4,0,0,0-.13-.36C370.14,39.77,370.68,39.54,371,39.42Z"/><path id="_Path_189" data-name="&lt;Path&gt;" class="cls-58" d="M368.81,40.57c.34.53-.84,2.25-1.53,3.2a8.79,8.79,0,0,1-1.6-3.36C367.68,40.23,368.62,40.27,368.81,40.57Z"/><path id="_Path_190" data-name="&lt;Path&gt;" class="cls-59" d="M367,44.15c-.21.28-.45.59-.72.92h-.68l.27-1L365,44l.5-.86-1-.13.57-.83-.92-.31.6-.66-.86-.55,1.28-.15A10.46,10.46,0,0,0,367,44.15Z"/><path id="_Path_191" data-name="&lt;Path&gt;" class="cls-60" d="M365.21,45.33l.91,0c-.32.39-.68.81-1.07,1.25a12.81,12.81,0,0,1-2.72-5.71l.89-.13,1,.44-.62.92.95.27-.58.9,1,.13-.52.83,1,.1Z"/><path id="_Path_192" data-name="&lt;Path&gt;" class="cls-44" d="M364.71,46.92l-.8.85a14,14,0,0,1-3.33-6.64l1.19-.21A15.64,15.64,0,0,0,364.71,46.92Z"/><path id="_Compound_Path_18" data-name="&lt;Compound Path&gt;" class="cls-61" d="M363.45,48.24c-.33.32-.66.66-1,1-.26-.38-.49-.69-.66-.91.11.25.3.61.53,1l-.62.56c-.3-.43-.55-.78-.74-1a12.21,12.21,0,0,0,.6,1.15c-.24.22-.49.43-.75.65-.36-.51-.66-.94-.87-1.2.14.31.39.78.71,1.34l-.75.61c-.33-.48-.61-.87-.81-1.13.13.3.36.73.65,1.25-.23.19-.48.37-.72.56-.35-.5-.64-.91-.85-1.18a13.28,13.28,0,0,0,.68,1.3l-.83.61c-.36-.51-.66-.94-.87-1.2a14.32,14.32,0,0,0,.7,1.32l-.83.57c-.41-.58-.74-1.06-1-1.35.16.33.43.85.79,1.47l-.38.24a22.93,22.93,0,0,1-4.69-10.16,45.08,45.08,0,0,1,8.35-2.52A15.4,15.4,0,0,0,363.45,48.24Zm-5,1.48a3,3,0,0,0,1-4,2.91,2.91,0,0,0-4-.92,3,3,0,0,0-1,4A2.91,2.91,0,0,0,358.49,49.72Z"/><path id="_Compound_Path_19" data-name="&lt;Compound Path&gt;" class="cls-58" d="M359.27,46.69a2.55,2.55,0,0,1-1.8,2.91,2.16,2.16,0,0,1-2.69-1.73A2.54,2.54,0,0,1,356.57,45,2.17,2.17,0,0,1,359.27,46.69Zm-1.37,2a1.69,1.69,0,0,0,.49-2.35,1.73,1.73,0,0,0-2.36-.54,1.68,1.68,0,0,0-.48,2.35A1.73,1.73,0,0,0,357.9,48.7Z"/><path id="_Path_193" data-name="&lt;Path&gt;" class="cls-62" d="M357.89,46.69a1.12,1.12,0,0,1-.55,1.44,1,1,0,0,1-1.42-.44,1.12,1.12,0,0,1,.55-1.44A1,1,0,0,1,357.89,46.69Z"/><path id="_Path_194" data-name="&lt;Path&gt;" class="cls-58" d="M356,54.2l-.69.42a24.07,24.07,0,0,1-4.71-10.36l.63-.28A24.05,24.05,0,0,0,356,54.2Z"/><path id="_Path_195" data-name="&lt;Path&gt;" class="cls-44" d="M354.8,54.89c-.29.17-.58.34-.88.49l-.74-.13.49-1.1L352.33,54l.68-1.24H351.6l.63-1.07-1.35-.13.66-1.25-1.1-.13.56-1-1-.25.53-.84-1.19-.32.51-.94-.82-.23.67-1-1.34-.19q.83-.45,1.65-.84A25.09,25.09,0,0,0,354.8,54.89Z"/><path id="_Path_196" data-name="&lt;Path&gt;" class="cls-61" d="M352.8,55.41l.71.19c-.39.21-.78.41-1.19.61-.4-.7-.74-1.27-1-1.61.13.38.4,1,.74,1.71l-.76.35c-.43-.76-.8-1.39-1-1.76a19.55,19.55,0,0,0,.81,1.86l-1,.42c-.39-.68-.72-1.24-.94-1.58.13.38.39,1,.72,1.67l-.54.21c-1.78-1.69-4.22-6.59-4.8-9.73a32.9,32.9,0,0,1,3.24-2.09l1.4.1-.62,1,.76.29-.38.92,1.15.29-.61.82,1,.28-.57,1,1.05.19-.59,1.29,1.4,0-.6,1.16,1.33,0-.68,1.08,1.38.25Z"/><path id="_Path_197" data-name="&lt;Path&gt;" class="cls-61" d="M350.46,57.73c.91-.4,1.81-.82,2.69-1.25-.53,3.24-4.1,6.83-6.86,7.19A10.5,10.5,0,0,0,350.46,57.73Z"/><path id="_Path_198" data-name="&lt;Path&gt;" class="cls-58" d="M348.46,58.56c.47-.18.93-.37,1.4-.57a9.51,9.51,0,0,1-3.49,5.11,9.73,9.73,0,0,0,2.08-4.52Z"/><path id="_Path_199" data-name="&lt;Path&gt;" class="cls-58" d="M348.55,57.21l.35.42a4.23,4.23,0,0,1-1.42.42l-.2-.18Z"/><path id="_Path_200" data-name="&lt;Path&gt;" class="cls-58" d="M348.35,57l-1.3.69a5.64,5.64,0,0,1-.45-.5l1.36-.72C348.09,56.62,348.22,56.79,348.35,57Z"/><path id="_Path_201" data-name="&lt;Path&gt;" class="cls-58" d="M347.76,56.15l-1.37.72c-.15-.2-.29-.41-.44-.63l1.38-.73C347.47,55.73,347.61,55.94,347.76,56.15Z"/><path id="_Path_202" data-name="&lt;Path&gt;" class="cls-58" d="M346.78,54.6c.12.21.24.41.37.61l-1.39.73c-.12-.2-.25-.4-.37-.61Z"/><path id="_Path_203" data-name="&lt;Path&gt;" class="cls-58" d="M346.28,53.73l.32.57-1.38.73c-.1-.2-.21-.39-.31-.58Z"/><path id="_Path_204" data-name="&lt;Path&gt;" class="cls-58" d="M346.12,53.42l-1.37.72-.3-.62,1.36-.71Z"/><path id="_Path_205" data-name="&lt;Path&gt;" class="cls-61" d="M347.94,44.92c-.83.45-1.7.94-2.57,1.47a12.76,12.76,0,0,0-7.76-1.29C339.77,43.46,344.74,43.08,347.94,44.92Z"/><path id="_Path_206" data-name="&lt;Path&gt;" class="cls-58" d="M345.63,52.44l-1.35.71-.27-.61,1.33-.7C345.43,52,345.53,52.24,345.63,52.44Z"/><path id="_Path_207" data-name="&lt;Path&gt;" class="cls-60" d="M346.54,57.89a3.28,3.28,0,0,1-1.1.31A32,32,0,0,1,341.7,51l1-.62A20.4,20.4,0,0,0,346.54,57.89Z"/><path id="_Path_208" data-name="&lt;Path&gt;" class="cls-58" d="M345.2,51.54l-1.32.69c-.1-.23-.19-.46-.28-.69l1.31-.68Z"/><path id="_Path_209" data-name="&lt;Path&gt;" class="cls-58" d="M344.76,50.51l-1.29.68c-.06-.18-.13-.36-.19-.53l1.28-.67C344.62,50.16,344.69,50.34,344.76,50.51Z"/><path id="_Path_210" data-name="&lt;Path&gt;" class="cls-58" d="M344.44,49.68l-1.26.67-.17-.59,1.23-.65Z"/><path id="_Path_211" data-name="&lt;Path&gt;" class="cls-44" d="M344.06,57l.21.32c-.2.08-.59.28-1,.43a2.7,2.7,0,0,1-.27-.3Z"/><path id="_Path_212" data-name="&lt;Path&gt;" class="cls-58" d="M344.15,48.83l-1.22.64a4.91,4.91,0,0,1-.1-.5l1.13-.84C344,48.32,344.07,48.56,344.15,48.83Z"/><path id="_Path_213" data-name="&lt;Path&gt;" class="cls-44" d="M343.94,56.82l-1.13.46c-.1-.13-.2-.28-.3-.44l1.14-.49Z"/><path id="_Path_214" data-name="&lt;Path&gt;" class="cls-58" d="M344.89,46.69c-.53.33-1.06.67-1.57,1a20.68,20.68,0,0,0-6-2A12.59,12.59,0,0,1,344.89,46.69Z"/><path id="_Path_215" data-name="&lt;Path&gt;" class="cls-44" d="M343.53,56.13l-1.15.51c-.09-.14-.18-.29-.26-.44l1.13-.55C343.34,55.82,343.44,56,343.53,56.13Z"/><path id="_Path_216" data-name="&lt;Path&gt;" class="cls-44" d="M343.13,55.44,342,56a4.82,4.82,0,0,1-.27-.5l1.12-.56C342.94,55.11,343,55.27,343.13,55.44Z"/><path id="_Path_217" data-name="&lt;Path&gt;" class="cls-44" d="M342.48,54.24c.08.16.17.32.26.48l-1.12.56c-.08-.17-.16-.33-.23-.5Z"/><path id="_Path_218" data-name="&lt;Path&gt;" class="cls-44" d="M342.37,54l-1.07.53c-.05-.12-.1-.23-.14-.35l1-.53C342.24,53.79,342.31,53.91,342.37,54Z"/><path id="_Path_219" data-name="&lt;Path&gt;" class="cls-63" d="M342.64,58.26a2.31,2.31,0,0,1-1.36,1.46c.09-.48.4-.74.39-1.19-.52,0-.78.45-1.37.42.17-.65.59-.82.63-1.33a9.84,9.84,0,0,0-1.83.27c.38-.69.83-.67,1.14-1.36-.63-.09-.95.25-1.67.18.31-.63,1-.82,1.12-1.22-.49-.23-1.15,0-1.62-.1.49-.4,1.22-.68,1.31-1.15A3.43,3.43,0,0,0,338,54c.43-.51,1.17-.41,1.32-.69-.1-.23-.26-.3-.48-.45a3.26,3.26,0,0,1,1.28.21A13.24,13.24,0,0,0,342.64,58.26Z"/><path id="_Path_220" data-name="&lt;Path&gt;" class="cls-44" d="M342.08,53.46l-1,.53c-.05-.15-.09-.3-.13-.44l.94-.49Z"/><path id="_Path_221" data-name="&lt;Path&gt;" class="cls-44" d="M341.79,52.84l-.9.47c0-.11,0-.22-.05-.33l.79-.57A4.18,4.18,0,0,0,341.79,52.84Z"/></g></g><g id="_Group_42" data-name="&lt;Group&gt;"><path id="_Path_222" data-name="&lt;Path&gt;" d="M539.5,87h.19a1.2,1.2,0,0,0,.86-.48,1.22,1.22,0,0,0,.19-1,1.42,1.42,0,0,0-1.48-1.08,1.15,1.15,0,0,0-.85.47,1.21,1.21,0,0,0-.19,1A1.41,1.41,0,0,0,539.5,87Z"/><path id="_Path_223" data-name="&lt;Path&gt;" d="M543,88.22l.15,0A1.56,1.56,0,0,0,544.79,87a1.45,1.45,0,0,0-.27-1.1,1.6,1.6,0,0,0-2.84.63,1.45,1.45,0,0,0,.27,1.1A1.55,1.55,0,0,0,543,88.22Z"/><path id="_Path_224" data-name="&lt;Path&gt;" d="M542,89.06a.79.79,0,0,0-.13-.38,1.17,1.17,0,0,0-.93-.53,1.1,1.1,0,0,0-.26,0,1.18,1.18,0,0,0-.79.48,1,1,0,0,0-.19.8,1.16,1.16,0,0,0,1.35.89,1.08,1.08,0,0,0,.83-.56A1.48,1.48,0,0,0,542,89.06Z"/><path id="_Compound_Path_20" data-name="&lt;Compound Path&gt;" d="M546.31,90.72c.51-.79,1.54-1,2.2-1.58a3.08,3.08,0,0,0,.91-2.53A4.76,4.76,0,0,0,548.19,84a11.28,11.28,0,0,0-2.61-2,12.16,12.16,0,0,0-15.24,2.35,8,8,0,0,0-2,4,6.3,6.3,0,0,0,1.92,5.19l.14.12a9.15,9.15,0,0,0-.63,4.65c-.38.09-.6.6-.83.87a28.29,28.29,0,0,0-3.72,5.06c-1,1.8-1.89,4.21-.89,6.18a4.06,4.06,0,0,0,1.28,1.33,4.58,4.58,0,0,0,.7.44,3,3,0,0,0,.71.27,1.31,1.31,0,0,0-.17.4,1.14,1.14,0,0,0,.65,1.36,5.69,5.69,0,0,0,.68.2v0c0,.17,0,.36,0,.55V115l-.09,1v0c0,.11,0,.29-.12.35s-.25,0-.37.07a.53.53,0,0,0-.12.35c-.08.58-.15,1.17-.23,1.75a.86.86,0,0,0,0,.45c.12.23.47.15.69.18l.9.1,2.57.22.93.07c.2,0,.5.13.65-.07a.79.79,0,0,0,.11-.43l.06-1.32a4,4,0,0,0-.05-.94h-.27c0-.06,0-.14,0-.25,0-.54.1-1.07.13-1.6h.14c.44,0,.89,0,1.33.06a.91.91,0,0,0,0,.33,4.61,4.61,0,0,1,0,.52c0,.35,0,.71,0,1.07a.86.86,0,0,0-.32,0,.3.3,0,0,0-.25.17.45.45,0,0,0,0,.16c-.07.72-.13,1.44-.19,2.16a8.83,8.83,0,0,0,1.45.17l2.85.11,1.15,0,.5,0a6,6,0,0,0,.1-.94,8,8,0,0,0,0-1.54l-.53-.16a7.45,7.45,0,0,0,.12-1.25c0-.23,0-.45,0-.68a1.61,1.61,0,0,1,0-.31,9.61,9.61,0,0,0,1-.18l.07,0a1.14,1.14,0,0,0,.7-1.29,1.64,1.64,0,0,0-.12-.41l.28,0a5.31,5.31,0,0,0,2.38-1.13,3.49,3.49,0,0,0,.84-1.44,6.17,6.17,0,0,0,.24-.94c.37-2.26-.58-4.59-1.59-6.56-.6-1.2-1.29-2.35-2-3.48l0-.12.06-.2s2,.23,2.17.23a7.42,7.42,0,0,0,2.47-.35,5.07,5.07,0,0,0,2.47-1.6,3.23,3.23,0,0,0-.92-4.77,4.53,4.53,0,0,1-.91-.58A.94.94,0,0,1,546.31,90.72ZM546.12,87a1.27,1.27,0,0,1-.2.36,2.63,2.63,0,0,1-.84.68c-.94.53-2.16,1-2.41,2.19a2.2,2.2,0,0,0,.14,1.34,2.85,2.85,0,0,0,.89.94,4.82,4.82,0,0,1,1.46,1.59,1.92,1.92,0,0,1-.32,2l-.1.09a3.2,3.2,0,0,1-3.18.59l-.08,0a9.14,9.14,0,0,0-1.41-4.85,5.13,5.13,0,0,0-3.26-2.28l.08-1.93a1.17,1.17,0,0,0,.51-.76,1.17,1.17,0,1,0-2.3-.46,1.21,1.21,0,0,0,.27,1l-.13,2.09a5.64,5.64,0,0,0-3.14,1.55,3.69,3.69,0,0,1,.3-4.31,9.19,9.19,0,0,1,7.13-3.24,11.62,11.62,0,0,1,3.47.37,5.36,5.36,0,0,1,2.85,1.65A1.62,1.62,0,0,1,546.12,87Z"/><path id="_Path_225" data-name="&lt;Path&gt;" d="M542.68,95.73a.57.57,0,0,0,.18,0,1,1,0,0,0,1-.83,1.06,1.06,0,0,0-.81-1.22,1,1,0,0,0-1.21.8A1.07,1.07,0,0,0,542.68,95.73Z"/><g id="_Group_43" data-name="&lt;Group&gt;"><path id="_Path_226" data-name="&lt;Path&gt;" class="cls-64" d="M530.51,84.82a8.51,8.51,0,0,1,1-1,3.9,3.9,0,0,1,2.77.56,7,7,0,0,0-.9.6A3.64,3.64,0,0,0,530.51,84.82Z"/><path id="_Path_227" data-name="&lt;Path&gt;" class="cls-65" d="M529.62,86.09a6.76,6.76,0,0,1,.58-.89,3.68,3.68,0,0,1,2.86,0,8.08,8.08,0,0,0-.89.86A3.72,3.72,0,0,0,529.62,86.09Z"/><path id="_Path_228" data-name="&lt;Path&gt;" class="cls-65" d="M532,83.42c.32-.24.67-.47,1-.69a3.29,3.29,0,0,1,2.51,1,9.9,9.9,0,0,0-.93.44A3.65,3.65,0,0,0,532,83.42Z"/><path id="_Path_229" data-name="&lt;Path&gt;" class="cls-64" d="M529.07,87.44a5.63,5.63,0,0,1,.38-1,3.7,3.7,0,0,1,2.48,0,5.67,5.67,0,0,0-.65,1.07A3.69,3.69,0,0,0,529.07,87.44Z"/><path id="_Path_230" data-name="&lt;Path&gt;" class="cls-64" d="M533.59,82.45a9.87,9.87,0,0,1,1.09-.51,3.19,3.19,0,0,1,2.22,1.34c-.35.1-.7.21-1,.34A3.59,3.59,0,0,0,533.59,82.45Z"/><path id="_Path_231" data-name="&lt;Path&gt;" class="cls-65" d="M529,87.75a3.61,3.61,0,0,1,2.15.06,3.35,3.35,0,0,0-.21.87,3.15,3.15,0,0,0-2.06.34A3.63,3.63,0,0,1,529,87.75Z"/><path id="_Path_232" data-name="&lt;Path&gt;" class="cls-65" d="M535.21,81.73q.52-.18,1.08-.33a3.31,3.31,0,0,1,2.06,1.6,9.08,9.08,0,0,0-1.14.2A3.65,3.65,0,0,0,535.21,81.73Z"/><path id="_Path_233" data-name="&lt;Path&gt;" class="cls-64" d="M536.84,81.26A12.19,12.19,0,0,1,538.2,81a3.17,3.17,0,0,1,2,1.9,12.7,12.7,0,0,0-1.51,0A3.65,3.65,0,0,0,536.84,81.26Z"/><path id="_Path_234" data-name="&lt;Path&gt;" class="cls-64" d="M528.9,89.3a2.31,2.31,0,0,1,2-.31,3.94,3.94,0,0,0,.14,1.17,3.68,3.68,0,0,0-1.7.87A5.28,5.28,0,0,1,528.9,89.3Z"/><path id="_Path_235" data-name="&lt;Path&gt;" class="cls-65" d="M540.49,82.93a3.55,3.55,0,0,0-1.67-2,11.72,11.72,0,0,1,1.56,0A3.22,3.22,0,0,1,542,83.08C541.48,83,541,83,540.49,82.93Z"/><path id="_Path_236" data-name="&lt;Path&gt;" class="cls-65" d="M529.54,91.3a4.82,4.82,0,0,1,1.6-.85,4.51,4.51,0,0,0,.5,1,7.32,7.32,0,0,0-1,1.58A4.47,4.47,0,0,1,529.54,91.3Z"/><path id="_Path_237" data-name="&lt;Path&gt;" class="cls-42" d="M535.68,86.53a.58.58,0,1,1,.46.71A.6.6,0,0,1,535.68,86.53Z"/><path id="_Path_238" data-name="&lt;Path&gt;" class="cls-64" d="M542.27,83.14A3.44,3.44,0,0,0,541.09,81a9.62,9.62,0,0,1,1.14.21,2.42,2.42,0,0,1,1.28,2.23A11.24,11.24,0,0,0,542.27,83.14Z"/><path id="_Path_239" data-name="&lt;Path&gt;" class="cls-65" d="M535.84,89.46,536,87.7l.34,0-.07,1.79Z"/><path id="_Path_240" data-name="&lt;Path&gt;" class="cls-66" d="M538.6,85.77a.76.76,0,0,1,.68-1,1,1,0,0,1,1.07.79.75.75,0,0,1-.68,1A1,1,0,0,1,538.6,85.77Z"/><path id="_Compound_Path_21" data-name="&lt;Compound Path&gt;" class="cls-42" d="M531.22,93.2a5.44,5.44,0,0,1,4.7-3.13c4.1,0,5.76,5.68,4.63,9-2.95.34-8.54-.41-10.14-.69C530,97.18,530.54,94.45,531.22,93.2Zm5-.9c-2.2,0-3,1.1-3.13,2s0,2.06,0,2.81a18.9,18.9,0,0,0,5.21.31,17.82,17.82,0,0,0,.44-2.79A2.32,2.32,0,0,0,536.23,92.3Z"/><path id="_Path_241" data-name="&lt;Path&gt;" class="cls-65" d="M543.81,83.54a2.47,2.47,0,0,0-.74-2.09,10.69,10.69,0,0,1,1.52.66,2.23,2.23,0,0,1,.57,2A6.73,6.73,0,0,0,543.81,83.54Z"/><path id="_Path_242" data-name="&lt;Path&gt;" class="cls-65" d="M534.07,93.46a2.55,2.55,0,0,1,2.06-.71,2.08,2.08,0,0,1,2,1A5.19,5.19,0,0,0,534.07,93.46Z"/><path id="_Path_243" data-name="&lt;Path&gt;" class="cls-66" d="M533.74,94.87a4.71,4.71,0,0,1,.1-.92,5.65,5.65,0,0,1,1.13-.28c-.47.52-.85,1-1.05,1.24.29-.24.78-.72,1.36-1.28a5.23,5.23,0,0,1,1,0c-.87.92-1.66,1.81-2,2.25.44-.37,1.35-1.27,2.3-2.19a5.28,5.28,0,0,1,.88.24,31.86,31.86,0,0,0-2.16,2.58c.46-.42,1.44-1.45,2.44-2.47l.41.19a4.35,4.35,0,0,1,0,.51,22,22,0,0,0-1.64,1.82c.33-.27.92-.83,1.6-1.46a17.55,17.55,0,0,1-.37,1.78,14,14,0,0,1-4.14-.19C533.7,96.25,533.71,95.54,533.74,94.87Z"/><path id="_Path_244" data-name="&lt;Path&gt;" class="cls-66" d="M542.13,86.58a1.13,1.13,0,0,1,1.28-.88,1.06,1.06,0,0,1,.93,1.19,1.13,1.13,0,0,1-1.28.88A1.06,1.06,0,0,1,542.13,86.58Z"/><path id="_Path_245" data-name="&lt;Path&gt;" class="cls-64" d="M545.27,82.49l1,.61a2.34,2.34,0,0,1-.17,1.76,3.85,3.85,0,0,0-.67-.57A2.61,2.61,0,0,0,545.27,82.49Z"/><path id="_Path_246" data-name="&lt;Path&gt;" class="cls-66" d="M540.09,89.37a.7.7,0,0,1,.63-.78.75.75,0,0,1,.88.55.7.7,0,0,1-.63.78A.75.75,0,0,1,540.09,89.37Z"/><path id="_Path_247" data-name="&lt;Path&gt;" class="cls-65" d="M530.31,99.78a1.09,1.09,0,0,1-.45-.19.28.28,0,0,1-.12-.12.5.5,0,0,1,0-.12.77.77,0,0,1,.15-.46s0,0,0,0a.11.11,0,0,1,.08,0c1.84.31,3.67.56,5.53.72a28.43,28.43,0,0,0,4.61.16c.53,0,.33.58.11.58s-.38.08-.56.09-.58,0-.87,0c-1.57,0-3.14-.08-4.7-.21-.77-.07-1.54-.14-2.3-.24l-.92-.13Z"/><path id="_Path_248" data-name="&lt;Path&gt;" class="cls-65" d="M546.24,85.09a2.86,2.86,0,0,0,.49-1.62,7.61,7.61,0,0,1,.69.59,2.64,2.64,0,0,1-.65,2A2.91,2.91,0,0,0,546.24,85.09Z"/><path id="_Path_249" data-name="&lt;Path&gt;" class="cls-64" d="M543.15,90.52a1.4,1.4,0,0,1,.67-1.09,3.12,3.12,0,0,0,1.94,1.07,1.38,1.38,0,0,0-.19.66A3,3,0,0,1,543.15,90.52Z"/><path id="_Path_250" data-name="&lt;Path&gt;" class="cls-64" d="M546.82,86.33a3,3,0,0,0,.93-1.94,5.78,5.78,0,0,1,.7,1,2.82,2.82,0,0,1-1.76,1.87A1.56,1.56,0,0,0,546.82,86.33Z"/><path id="_Path_251" data-name="&lt;Path&gt;" class="cls-65" d="M546,90.24a3,3,0,0,1-1.85-1c.26-.17.55-.32.84-.48a3.23,3.23,0,0,0,2.2.6A5.3,5.3,0,0,0,546,90.24Z"/><path id="_Path_252" data-name="&lt;Path&gt;" class="cls-64" d="M545.25,88.6a7,7,0,0,0,.64-.41,3.41,3.41,0,0,0,2.7-.14,2.77,2.77,0,0,1-.71.81A2.94,2.94,0,0,1,545.25,88.6Z"/><path id="_Path_253" data-name="&lt;Path&gt;" class="cls-65" d="M546.17,88a2.55,2.55,0,0,0,.35-.41,2.9,2.9,0,0,0,2.14-1.77,2.69,2.69,0,0,1,.15,1.69A2.82,2.82,0,0,1,546.17,88Z"/><path id="_Compound_Path_22" data-name="&lt;Compound Path&gt;" class="cls-42" d="M539.91,100.87a45,45,0,0,1-9.92-.7c-1.31,1-2.52,9.16-2.24,11.75.36.13,5.24.51,5.72.53a45,45,0,0,0,6.67-.13C540.71,110.5,541.26,102.58,539.91,100.87Zm-2.75,10.6a55.94,55.94,0,0,1-5.83-.19h0a2.62,2.62,0,0,1-.5-.13.89.89,0,0,1-.47-.62,2.76,2.76,0,0,1,0-.76l.54-4.56c.08-.76.15-1.52.26-2.28v0c.11-.65.76-.67,1.42-.62l1.56.12,3.36.25c1.09.08,1.19.43,1.2,1.53,0,1.55-.11,4.73-.11,6.16C538.58,111.32,538.21,111.42,537.16,111.47Z"/><path id="_Path_254" data-name="&lt;Path&gt;" class="cls-65" d="M544.25,92.17a2.93,2.93,0,0,1-1-1.16,3.12,3.12,0,0,0,2.37.49,1.79,1.79,0,0,0,.33.68A2,2,0,0,1,544.25,92.17Z"/><path id="_Path_255" data-name="&lt;Path&gt;" class="cls-66" d="M542.26,94.58a.59.59,0,0,1,.73-.49.69.69,0,0,1,.51.78.59.59,0,0,1-.73.48A.69.69,0,0,1,542.26,94.58Z"/><path id="_Path_256" data-name="&lt;Path&gt;" class="cls-67" d="M532.83,104.13a.19.19,0,0,1,0-.29.24.24,0,0,1,.32,0,.18.18,0,0,1,0,.29A.23.23,0,0,1,532.83,104.13Z"/><path id="_Path_257" data-name="&lt;Path&gt;" class="cls-64" d="M545.34,93.25a4.81,4.81,0,0,0-.56-.59,2,2,0,0,0,1.39-.22,11.54,11.54,0,0,0,1,.81A1.86,1.86,0,0,1,545.34,93.25Z"/><path id="_Path_258" data-name="&lt;Path&gt;" class="cls-65" d="M541.35,97.28a2.78,2.78,0,0,0,.38.12,2.57,2.57,0,0,0,.41,1.23,9.35,9.35,0,0,1-.92-.18A8.91,8.91,0,0,0,541.35,97.28Z"/><path id="_Path_259" data-name="&lt;Path&gt;" class="cls-67" d="M534.59,104.31a.17.17,0,0,1,.06-.27.23.23,0,0,1,.3,0,.19.19,0,0,1-.06.28A.23.23,0,0,1,534.59,104.31Z"/><path id="_Path_260" data-name="&lt;Path&gt;" class="cls-67" d="M532.34,106.62a1.17,1.17,0,0,1,0-.27.32.32,0,0,1,.14-.2.42.42,0,0,1,.19,0c.34,0,.66,0,1,0,.06,0,.35.07.39,0l-1.7,1.49s0-.27,0-.32V107C532.36,106.88,532.34,106.74,532.34,106.62Z"/><path id="_Path_261" data-name="&lt;Path&gt;" class="cls-65" d="M545.89,94.36a2.79,2.79,0,0,0-.29-.75,1.8,1.8,0,0,0,1.82-.13,3.41,3.41,0,0,1,.78.88A2.65,2.65,0,0,1,545.89,94.36Z"/><path id="_Path_262" data-name="&lt;Path&gt;" class="cls-64" d="M542,97.45a3.6,3.6,0,0,0,1,0,2.46,2.46,0,0,0,.78,1.18,8.55,8.55,0,0,1-1.24,0A2.26,2.26,0,0,1,542,97.45Z"/><path id="_Path_263" data-name="&lt;Path&gt;" class="cls-67" d="M532.51,107.94l2-1.72,1,.06-2,1.74Z"/><path id="_Path_264" data-name="&lt;Path&gt;" class="cls-68" d="M540.66,100.49a2.41,2.41,0,0,0,.18-.36c.47.75.93,1.52,1.35,2.31-.36.08-.73.15-1.1.2A11.13,11.13,0,0,0,540.66,100.49Z"/><path id="_Path_265" data-name="&lt;Path&gt;" class="cls-67" d="M536.47,104.38a.16.16,0,0,1,.24,0,.23.23,0,0,1,0,.28.15.15,0,0,1-.23,0A.21.21,0,0,1,536.47,104.38Z"/><path id="_Path_266" data-name="&lt;Path&gt;" class="cls-64" d="M545.85,95.41a2.34,2.34,0,0,0,.08-.72,2.93,2.93,0,0,0,2.41,0,2,2,0,0,1,0,1.13A2.67,2.67,0,0,1,545.85,95.41Z"/><path id="_Path_267" data-name="&lt;Path&gt;" class="cls-65" d="M543.35,97.44a4.44,4.44,0,0,0,.83-.25,3.23,3.23,0,0,0,1.39,1.13,7.93,7.93,0,0,1-1.32.3A2.53,2.53,0,0,1,543.35,97.44Z"/><path id="_Path_268" data-name="&lt;Path&gt;" class="cls-65" d="M545.4,96.29a2.65,2.65,0,0,0,.36-.6,2.94,2.94,0,0,0,2.48.48,2.94,2.94,0,0,1-.81,1.11A2.16,2.16,0,0,1,545.4,96.29Z"/><path id="_Path_269" data-name="&lt;Path&gt;" class="cls-64" d="M544.5,97a3.08,3.08,0,0,0,.65-.47,2.66,2.66,0,0,0,1.89,1,5.28,5.28,0,0,1-1,.55A2.39,2.39,0,0,1,544.5,97Z"/><path id="_Path_270" data-name="&lt;Path&gt;" class="cls-67" d="M533.94,108.05l2-1.74c.29,0,.74,0,.82.34l-1.69,1.48Z"/><path id="_Path_271" data-name="&lt;Path&gt;" class="cls-67" d="M534,110a.27.27,0,0,1,0-.4.35.35,0,0,1,.46,0,.26.26,0,0,1,0,.4A.35.35,0,0,1,534,110Z"/><path id="_Path_272" data-name="&lt;Path&gt;" class="cls-67" d="M535.46,108.16l1.27-1.12c0,.27,0,.5,0,.76s-.39.38-.58.39Z"/><path id="_Path_273" data-name="&lt;Path&gt;" class="cls-65" d="M540,113c-3.52.36-8.4-.13-12.05-.48-.49,0-.77.87-.21,1.13,1.79.7,9.81,1.12,12.42.49C540.7,113.89,540.46,112.92,540,113Z"/><path id="_Path_274" data-name="&lt;Path&gt;" class="cls-69" d="M541.21,104.11c0-.4-.05-.78-.09-1.15.41-.07.83-.15,1.22-.24.18.36.35.71.52,1.07C542.33,103.92,541.77,104,541.21,104.11Z"/><path id="_Path_275" data-name="&lt;Path&gt;" class="cls-67" d="M536.34,110.11a.23.23,0,0,1,.08-.36.36.36,0,0,1,.43.08.24.24,0,0,1-.09.37A.34.34,0,0,1,536.34,110.11Z"/><path id="_Path_276" data-name="&lt;Path&gt;" class="cls-67" d="M531.93,109.88a.23.23,0,0,1,.08-.36.35.35,0,0,1,.43.08.23.23,0,0,1-.08.36A.35.35,0,0,1,531.93,109.88Z"/><path id="_Path_277" data-name="&lt;Path&gt;" class="cls-68" d="M541.26,105.44q0-.51,0-1a15.66,15.66,0,0,0,1.76-.35c.16.37.31.73.44,1.09A15,15,0,0,1,541.26,105.44Z"/><path id="_Path_278" data-name="&lt;Path&gt;" class="cls-69" d="M541.27,106.89q0-.56,0-1.11a20.31,20.31,0,0,0,2.27-.32c.12.34.22.69.31,1A16.25,16.25,0,0,1,541.27,106.89Z"/><path id="_Path_279" data-name="&lt;Path&gt;" class="cls-68" d="M541.24,108.37c0-.37,0-.76,0-1.15a18.05,18.05,0,0,0,2.65-.42,7,7,0,0,1,.19,1.17A15.13,15.13,0,0,1,541.24,108.37Z"/><path id="_Path_280" data-name="&lt;Path&gt;" class="cls-65" d="M535,115.32q0-.28,0-.54c1.28,0,2.57,0,3.62,0v.49Z"/><path id="_Path_281" data-name="&lt;Path&gt;" class="cls-69" d="M541.16,109.72c0-.32,0-.66.06-1a19.49,19.49,0,0,0,2.91-.44,5.32,5.32,0,0,1,0,1.06A15.91,15.91,0,0,1,541.16,109.72Z"/><path id="_Path_282" data-name="&lt;Path&gt;" class="cls-64" d="M535,116.09l0-.39,3.65,0c0,.14,0,.28,0,.41Z"/><path id="_Path_283" data-name="&lt;Path&gt;" class="cls-42" d="M535,116.4l3.66,0a5.21,5.21,0,0,1,0,.55c-.46,0-3.11-.07-3.64-.15A2.17,2.17,0,0,0,535,116.4Z"/><path id="_Path_284" data-name="&lt;Path&gt;" class="cls-68" d="M541,111.19c0-.34.08-.72.11-1.12a17.45,17.45,0,0,0,2.9-.41,4.18,4.18,0,0,1-.26.85A16.48,16.48,0,0,1,541,111.19Z"/><path id="_Path_285" data-name="&lt;Path&gt;" class="cls-70" d="M534.12,118.89s.13-1.49.15-1.54c.69.05,3.91.15,4.65.15a5.83,5.83,0,0,1,.13,1.62C538.39,119.08,534.87,119,534.12,118.89Z"/><path id="_Path_286" data-name="&lt;Path&gt;" class="cls-65" d="M528.71,115c0-.19,0-.37,0-.54,1.28.1,2.57.17,3.61.19,0,.15,0,.32,0,.49Z"/><path id="_Path_287" data-name="&lt;Path&gt;" class="cls-64" d="M528.63,115.77l0-.4,3.65.14,0,.4Z"/><path id="_Path_288" data-name="&lt;Path&gt;" class="cls-42" d="M528.6,116.07l3.66.14a5.31,5.31,0,0,1-.07.54c-.47,0-3.11-.22-3.63-.32C528.56,116.42,528.58,116.28,528.6,116.07Z"/><path id="_Path_289" data-name="&lt;Path&gt;" class="cls-70" d="M527.65,118.52s.2-1.48.22-1.53c.69.08,3.89.33,4.64.37a5.7,5.7,0,0,1,0,1.62C531.9,118.91,528.39,118.67,527.65,118.52Z"/><path id="_Path_290" data-name="&lt;Path&gt;" class="cls-69" d="M540.86,112.36c0-.22.08-.48.12-.76a18,18,0,0,0,2.55-.57A5,5,0,0,1,540.86,112.36Z"/><path id="_Path_291" data-name="&lt;Path&gt;" class="cls-68" d="M529.5,99.9a2.85,2.85,0,0,1-.12-.38c-.58.66-1.39,1.62-1.92,2.33.34.14.69.26,1,.37A14,14,0,0,1,529.5,99.9Z"/><path id="_Path_292" data-name="&lt;Path&gt;" class="cls-69" d="M528.16,103.64c.09-.38.17-.76.27-1.12-.4-.13-.79-.27-1.16-.42-.24.32-.47.65-.69,1A15.49,15.49,0,0,0,528.16,103.64Z"/><path id="_Path_293" data-name="&lt;Path&gt;" class="cls-68" d="M527.9,105c.06-.33.13-.67.19-1-.58-.19-1.16-.4-1.68-.63-.21.34-.42.68-.61,1A17.11,17.11,0,0,0,527.9,105Z"/><path id="_Path_294" data-name="&lt;Path&gt;" class="cls-69" d="M527.67,106.38c.05-.36.11-.73.17-1.1a16.64,16.64,0,0,1-2.19-.67c-.17.33-.33.66-.47,1A17.09,17.09,0,0,0,527.67,106.38Z"/><path id="_Path_295" data-name="&lt;Path&gt;" class="cls-68" d="M527.47,107.86c0-.38.09-.76.15-1.15a18.66,18.66,0,0,1-2.56-.83,9.93,9.93,0,0,0-.37,1.13A16.39,16.39,0,0,0,527.47,107.86Z"/><path id="_Path_296" data-name="&lt;Path&gt;" class="cls-69" d="M527.33,109.2c0-.32.07-.66.1-1a18.29,18.29,0,0,1-2.81-.89,6.5,6.5,0,0,0-.12,1A16.23,16.23,0,0,0,527.33,109.2Z"/><path id="_Path_297" data-name="&lt;Path&gt;" class="cls-68" d="M527.23,110.67c0-.35,0-.73.07-1.13a17.89,17.89,0,0,1-2.8-.85,4.34,4.34,0,0,0,.12.88A16.15,16.15,0,0,0,527.23,110.67Z"/><path id="_Path_298" data-name="&lt;Path&gt;" class="cls-69" d="M527.22,111.85c0-.22,0-.48,0-.77a16.57,16.57,0,0,1-2.43-1A5,5,0,0,0,527.22,111.85Z"/><path id="_Compound_Path_23" data-name="&lt;Compound Path&gt;" class="cls-64" d="M538.17,110c-.07-1.36.12-4.26.15-5.6,0-1-.11-1.15-1-1.21-1.68-.13-3.8-.29-4.91-.44h0c-.5-.06-.84-.06-.88.33s-.43,3.16-.52,4.16-.49,3-.15,3.32,1.5.29,2.22.33h0a37.93,37.93,0,0,0,3.94,0C537.91,110.9,538.22,110.84,538.17,110Zm-3.68-6.27a.69.69,0,0,1,.88.17.54.54,0,0,1-.17.8.69.69,0,0,1-.88-.18A.53.53,0,0,1,534.49,103.72Zm-1.89-.17a.7.7,0,0,1,.92.08.54.54,0,0,1-.09.82.7.7,0,0,1-.92-.08A.54.54,0,0,1,532.6,103.55Zm2.15,6.78a.79.79,0,0,1-1,0,.59.59,0,0,1,.07-.9.76.76,0,0,1,1,.05A.59.59,0,0,1,534.75,110.33Zm2.26.18a.85.85,0,0,1-1-.19.57.57,0,0,1,.21-.88.85.85,0,0,1,1,.19A.58.58,0,0,1,537,110.51Zm-4.4-.3a.85.85,0,0,1-1.05-.2.58.58,0,0,1,.21-.88.85.85,0,0,1,1.05.2A.59.59,0,0,1,532.61,110.21Zm3.62-1.68a12.41,12.41,0,0,1-1.61-.09,23.36,23.36,0,0,1-2.35-.23.38.38,0,0,1-.25-.11c-.12-.1-.12-.45-.12-.6s0-.46,0-.69,0-.43,0-.64c.11-.73.88-.5,1.4-.46l1.32.09c.56,0,1.11.09,1.67.11s.79.23.8.84,0,.84-.05,1.25C537,108.61,536.51,108.52,536.23,108.53Zm.86-3.7a.49.49,0,0,1-.76.13.7.7,0,0,1-.19-.88.49.49,0,0,1,.76-.13A.71.71,0,0,1,537.09,104.83Z"/></g></g><g id="_Group_44" data-name="&lt;Group&gt;"><path id="_Compound_Path_24" data-name="&lt;Compound Path&gt;" d="M436.19,187.67a4.74,4.74,0,0,0-2.14,1.8,4,4,0,0,0-.69,2.27,2.84,2.84,0,0,0,1.72,2.34,1.88,1.88,0,0,0,2.37-1.87c0,.09-.54.21-.61.22a1.73,1.73,0,0,1-.68-.05,1.13,1.13,0,0,1-.51-1.86,2.2,2.2,0,0,1,3.77.34c.9,1.63.87,4.76-1,7.57a12,12,0,0,1-.86,1.16,6.39,6.39,0,0,1-4.62,2.18,6.65,6.65,0,0,1-4.63-1.73A10.77,10.77,0,0,0,431,197.7q.26-.34.48-.69a9.4,9.4,0,0,0,1.3-3,5.29,5.29,0,0,0-1.22-4.89,4.23,4.23,0,0,0-4.07-1.06,5.18,5.18,0,0,0-3.28,2.37,8.11,8.11,0,0,0-1.23,4,8.62,8.62,0,0,0,1.12,4.56,10.6,10.6,0,0,1-8.45-2.09,11.66,11.66,0,0,1-3.12-14.14c.11-.21.23-.42.35-.61a3.71,3.71,0,0,1,1.38-1.4c.56-.27,1.42-.13,1.49.61a.84.84,0,0,1-1.39.71,1.94,1.94,0,0,0,.49,1.43,1.69,1.69,0,0,0,2.58-.07,3.31,3.31,0,0,0,.67-3.07,3,3,0,0,0-3.84-2.18c-2.55.67-4,3.2-4.65,5.6a16.44,16.44,0,0,0-.4,5.79,13.16,13.16,0,0,0,5.17,9.22,12.64,12.64,0,0,0,10.85,2.39l.41-.12c.21.22.44.44.68.65a10.16,10.16,0,0,0,6.9,2.48,9.45,9.45,0,0,0,7.09-4,10.62,10.62,0,0,0,2.13-8,5.85,5.85,0,0,0-2.85-4.22A4,4,0,0,0,436.19,187.67ZM426,196.24c-.34-1.45-.38-3.68.85-4.74a1.91,1.91,0,0,1,2.12-.3,2,2,0,0,1,.91,1.33,3.62,3.62,0,0,1-.37,2.37,6.38,6.38,0,0,1-.38.67,7.55,7.55,0,0,1-2.27,2.23l-.22.14A7,7,0,0,1,426,196.24Z"/><g id="_Group_45" data-name="&lt;Group&gt;"><path id="_Path_299" data-name="&lt;Path&gt;" class="cls-71" d="M415.25,197.34A12.25,12.25,0,0,1,412,182.45c.65-1.22,2-3.17,3.65-2.21a1.25,1.25,0,0,1,.07,2.1.9.9,0,0,1-.92.19,1.21,1.21,0,0,0,1,.92A1.26,1.26,0,0,0,417,183a2.72,2.72,0,0,0,.54-2.5,2.45,2.45,0,0,0-3.13-1.78,5,5,0,0,0-1.85,1,8.47,8.47,0,0,0-2.38,4.19,15.94,15.94,0,0,0-.39,5.59,12.75,12.75,0,0,0,4.95,8.81A12,12,0,0,0,425,200.58a9.29,9.29,0,0,1-.79-1.05A11.13,11.13,0,0,1,415.25,197.34Z"/><path id="_Path_300" data-name="&lt;Path&gt;" class="cls-71" d="M438.59,201.2c2.4-2.26,3.77-6.16,3.23-8.92-.71-3.68-3.69-4.78-5.41-4.07a3.81,3.81,0,0,0-2.4,4c.26,1.12,1.94,2.36,2.9.59a1.5,1.5,0,0,1-2-1.75c.44-2.67,3.79-2.71,5-.5,1.06,1.92,1.05,6-1.9,9.39a7.08,7.08,0,0,1-10.53.08,7.9,7.9,0,0,1-2.05-3.68,7.56,7.56,0,0,1,.16-4,2.82,2.82,0,0,1,2.29-2c1.22-.16,2.49.6,2.68,2.64a4.28,4.28,0,0,1-.51,2.1,8,8,0,0,1-2.86,3.14,9.93,9.93,0,0,0,.79,1.17c.26.32,2.32-1.92,2.48-2.13a9,9,0,0,0,1.67-3.46c.69-3-1.24-6-4.59-5.25-2.62.59-3.92,3.31-4,5.79a8.69,8.69,0,0,0,3.13,6.81C429.91,204,434.86,204.7,438.59,201.2Z"/></g></g><g id="_Group_46" data-name="&lt;Group&gt;"><polygon id="_Path_301" data-name="&lt;Path&gt;" class="cls-13" points="417.28 186.66 417.89 183.9 418.99 186.3 420.99 185.06 420.62 187.79 422.74 188.06 420.69 189.17 421.82 191.31 419.36 191.07 418.88 193.54 417.87 191.39 415.93 192.51 415.9 190.09 413.69 189.6 415.81 188.57 414.42 186.61 417.28 186.66 417.28 186.66"/><path id="_Compound_Path_25" data-name="&lt;Compound Path&gt;" class="cls-72" d="M417.25,189.6a1.2,1.2,0,0,1,.34-1.68,1.23,1.23,0,0,1,1.69.38,1.2,1.2,0,0,1-.34,1.68,1.23,1.23,0,0,1-1.69-.38Zm.34-.33a.56.56,0,0,1,.18-.81.67.67,0,0,1,.88.18.55.55,0,0,1-.18.82.67.67,0,0,1-.88-.19Z"/><path id="_Path_302" data-name="&lt;Path&gt;" class="cls-29" d="M419.17,190.39l-.41,2-.78-1.76a1.66,1.66,0,0,0,1.19-.2Z"/><path id="_Path_303" data-name="&lt;Path&gt;" class="cls-29" d="M419.55,187.87l2.14.37L420,189a1.74,1.74,0,0,0-.4-1.17Z"/><path id="_Path_304" data-name="&lt;Path&gt;" class="cls-29" d="M417.44,187.45l.59-2.56.91,2.52a1.69,1.69,0,0,0-1.5,0Z"/><path id="_Path_305" data-name="&lt;Path&gt;" class="cls-29" d="M417,190.06l-2.57-.49,2.14-.88a1.77,1.77,0,0,0,.43,1.37Z"/><polygon id="_Path_306" data-name="&lt;Path&gt;" class="cls-73" points="417.71 191.05 416.27 191.94 416.27 190.17 417.42 190.42 417.71 191.05 417.71 191.05"/><path id="_Path_307" data-name="&lt;Path&gt;" class="cls-73" d="M416.16,188.39l-1-1.39,2,.28-.11.48a2.43,2.43,0,0,0-.24.32l-.64.31Z"/><polygon id="_Path_308" data-name="&lt;Path&gt;" class="cls-73" points="419.2 186.76 420.45 185.74 420.19 187.74 419.62 187.67 419.2 186.76 419.2 186.76"/><path id="_Path_309" data-name="&lt;Path&gt;" class="cls-73" d="M420.28,189.39l.92,1.44-1.77-.17.12-.58a2,2,0,0,0,.27-.44l.46-.25Z"/></g><g id="_Group_47" data-name="&lt;Group&gt;"><path id="_Path_310" data-name="&lt;Path&gt;" class="cls-13" d="M422.86,186.28a1.69,1.69,0,0,1,.7-2.2,1.52,1.52,0,0,1,2.15.51,1.68,1.68,0,0,1-.7,2.19,1.52,1.52,0,0,1-2.15-.5Z"/><path id="_Compound_Path_26" data-name="&lt;Compound Path&gt;" class="cls-30" d="M423.29,185.44a1,1,0,0,1,.92-1.13,1.12,1.12,0,0,1,1.18,1,1,1,0,0,1-.92,1.13,1.13,1.13,0,0,1-1.18-1Zm.66-.3a.42.42,0,0,1,.61-.15.51.51,0,0,1,.08.67.42.42,0,0,1-.61.15.5.5,0,0,1-.08-.67Z"/></g><g id="_Group_48" data-name="&lt;Group&gt;"><path id="_Path_311" data-name="&lt;Path&gt;" class="cls-13" d="M443.72,184.66a1.69,1.69,0,0,1,1.11-1.9,1.29,1.29,0,0,1,1.65,1.07,1.69,1.69,0,0,1-1.11,1.9,1.29,1.29,0,0,1-1.65-1.07Z"/><path id="_Path_312" data-name="&lt;Path&gt;" class="cls-32" d="M444.32,184a1.12,1.12,0,0,1,1.05-.86.73.73,0,0,1,.56,1,1.1,1.1,0,0,1-1.06.86c-.44,0-.69-.48-.55-1Z"/></g><g id="_Group_49" data-name="&lt;Group&gt;"><g id="_Group_50" data-name="&lt;Group&gt;"><g id="_Group_51" data-name="&lt;Group&gt;"><path id="_Path_313" data-name="&lt;Path&gt;" class="cls-74" d="M511.44,64.58c-.07-2.56-1.56-3.31-3.87-1.69a6.66,6.66,0,0,0-2.9,6.13c-4.84-3.1-7.59,1.93-6.29,3.63-6.34.42-8.24,4.88-6.83,7,1.17,1.77,5.09,2.11,9.71-3.07-2.4,5.81,4.47,4.12,5.4,1.11a63.17,63.17,0,0,0,7.08,6.76c-.72-2-2-4.5-2.58-6.59,3.45-1.37,2.6-4.51.12-4.53,6-1.15,5.32-5.45,2.12-5.21C524.07,64.65,515.55,57.21,511.44,64.58Z"/><path id="_Path_314" data-name="&lt;Path&gt;" class="cls-75" d="M518.71,61.8c-2.12-2.39-5.33-.62-6.92,1.37-.61-2.29-2.51-2.2-4.34-1.14A6.17,6.17,0,0,0,505,64.46c-.26.46-1.48,3.11-1.09,3.55-1-1.1-3.39-1-4.52-.18a4.43,4.43,0,0,0-2,4.21c-3.32.75-8.7,3.73-6.71,7.91.67,1.42,3.2,1.55,4.55,1.37A9.54,9.54,0,0,0,500,79.14c-.43.36,1.16,1.72,1.43,1.83a4,4,0,0,0,2.88-.09c1-.38,1.46-1.28,2.29-1.77.19-.11,4.29,3.58,4.72,3.93,1.14.93,2.37,1.8,3.45,2.8-.58-1.71-1.27-3.38-1.91-5.07a11,11,0,0,0-.93-2.48c1.48-1.05,3.56-3.48,1.37-5.09.42.31,2.44-1.77,2.66-2.11.88-1.37.09-2.06-.53-3.32C518,67.72,520.63,64,518.71,61.8Z"/></g></g><path id="_Path_315" data-name="&lt;Path&gt;" class="cls-62" d="M511.44,64.58c4.11-7.38,12.63.07,2,3.55,3.2-.25,3.83,4.06-2.12,5.21,2.48,0,3.33,3.16-.11,4.53.59,2.09,1.85,4.59,2.57,6.59a63.17,63.17,0,0,1-7.08-6.76c-.93,3-7.8,4.7-5.4-1.11-4.62,5.17-8.54,4.84-9.71,3.07-1.41-2.13.49-6.59,6.83-7-1.3-1.71,1.45-6.74,6.29-3.64a6.67,6.67,0,0,1,2.9-6.13C509.89,61.27,511.37,62,511.44,64.58Z"/></g><g id="_Group_52" data-name="&lt;Group&gt;"><path id="_Compound_Path_27" data-name="&lt;Compound Path&gt;" d="M242.81,180.42c-5.5-1.69-9.41-1.4-10.14.68a3.09,3.09,0,0,0,.28,2.49c.91,1.74,3.26,3.48,6.71,5a16,16,0,0,1,.22,1.69,13.1,13.1,0,0,0,2.43,5.34,11.89,11.89,0,0,0,6.22,4.23h.05a11.86,11.86,0,0,0,13.23-5.6l.21-.37c4.47.25,7.79-.29,8.35-2,.74-2.28-4.19-4.21-6.34-4.94l-.76-.24a12,12,0,0,0-18.84-7.54c-.15.11-1.4,1.26-1.43,1.25Zm-1.57,2.32a14.55,14.55,0,0,0-1.05,2.22h0c-.07.2-.13.4-.19.59-2.38-1.12-3.58-2.11-3.87-2.84a.65.65,0,0,1,0-.61c.17-.28,1-.82,5.29.28ZM263.53,189c1.76.5,3.34,1.18,3.27,1.57s-1.62.46-3.61.39a7.85,7.85,0,0,0,.23-2Z"/><g id="_Group_53" data-name="&lt;Group&gt;"><path id="_Path_316" data-name="&lt;Path&gt;" class="cls-76" d="M269.8,191.76c-.78,2.4-10.22,2.19-21.43-.75-11.44-3-16.07-7-15.13-9.71.57-1.66,4.29-1.88,9.4-.32a7.11,7.11,0,0,0-.81.89c-2.26-.6-5.45-1.28-6.17-.06-1.14,1.93,3.41,4.78,12.82,7.3,8.94,2.38,18.33,3.25,18.9,1.67.37-1-2.68-2.05-3.69-2.33a8.5,8.5,0,0,0,.15-.88C266.29,188.39,270.31,190.19,269.8,191.76Z"/><path id="_Compound_Path_28" data-name="&lt;Compound Path&gt;" class="cls-53" d="M261.29,194a75.9,75.9,0,0,1-13-2.33,62.54,62.54,0,0,1-8-2.64c0,.31.05.61.09.92,4.45,2.37,12.94,4,14.8,4.48-.55,0-1.2-.1-1.93-.21a56.11,56.11,0,0,1-12.75-3.64,10.63,10.63,0,0,0,.33,1.23c2,.91,5.74,2.2,6.76,2.54a39.62,39.62,0,0,1-6.55-2,11.61,11.61,0,0,0,.77,1.59,61.07,61.07,0,0,0,7.77,2.62,51.17,51.17,0,0,1-7.29-1.88,12,12,0,0,0,3.18,3.13,11.19,11.19,0,0,0,3.28,1.49,10.64,10.64,0,0,0,4.24.28,11.16,11.16,0,0,0,3.89-1.25l.6-.35v0a36.43,36.43,0,0,1-3.79-.9c.72.06,2.41.43,4,.68a9.59,9.59,0,0,0,1.8-1.38,50.9,50.9,0,0,1-5.61-1c1,0,3.66.4,6,.65.26-.29.5-.6.74-.92a20.35,20.35,0,0,1-4.36-.75c1,0,3,.33,4.65.32C261,194.45,261.16,194.23,261.29,194Z"/><path id="_Path_317" data-name="&lt;Path&gt;" class="cls-53" d="M262.72,190.43l0-.22a61.77,61.77,0,0,1-8.9-1.4c1.55.08,6.66.83,9,.9,0-.36,0-.72,0-1.07a44.22,44.22,0,0,1-6.18-1.3c1.5.14,4.34.72,6.16.82,0-.43-.08-.87-.15-1.29a31.31,31.31,0,0,1-4.85-1c1.15.08,3.08.35,4.73.49a11.37,11.37,0,0,0-15.94-7.68c1.36.53,3.54,1.32,3.88,1.46-.45-.09-2.78-.85-4.18-1.32a12.12,12.12,0,0,0-1.68,1.05c1.62.64,4.91,1.79,5.54,2a32.21,32.21,0,0,1-5.89-1.7,11.09,11.09,0,0,0-1.57,1.57c1.6.56,4.55,1.46,5.27,1.68a38.6,38.6,0,0,1-5.6-1.26,10.18,10.18,0,0,0-.62.94c0,.1.07.17.06.18,1.38.62,3.08,1.14,4,1.45a22,22,0,0,1-4.38-1.06c-.17.32-.32.66-.46,1,1.06.38,2.38.78,3,1a23.08,23.08,0,0,1-3.1-.7c-.1.29-.2.59-.29.89l-.06.28c2.19.84,5.22,1.75,8.12,2.52A61.14,61.14,0,0,0,262.58,191Z"/></g></g><g id="_Group_54" data-name="&lt;Group&gt;"><path id="_Path_318" data-name="&lt;Path&gt;" class="cls-13" d="M265,171.08a1.84,1.84,0,0,1,.41-2.58,1.88,1.88,0,0,1,2.6.49,1.83,1.83,0,0,1-.42,2.58,1.87,1.87,0,0,1-2.59-.49Z"/><path id="_Path_319" data-name="&lt;Path&gt;" class="cls-39" d="M265.4,170.83a1.41,1.41,0,0,1,2.34-1.58,1.42,1.42,0,0,1-.4,1.95,1.39,1.39,0,0,1-1.94-.37Z"/></g><g id="_Group_55" data-name="&lt;Group&gt;"><path id="_Path_320" data-name="&lt;Path&gt;" class="cls-13" d="M260.41,168.43a1.33,1.33,0,1,1,1.82.29,1.31,1.31,0,0,1-1.82-.29Z"/><path id="_Path_321" data-name="&lt;Path&gt;" class="cls-77" d="M261,167.9a.94.94,0,0,1,.53-1.06.66.66,0,0,1,.91.47.93.93,0,0,1-.53,1.06.66.66,0,0,1-.91-.47Z"/></g><g id="_Group_56" data-name="&lt;Group&gt;"><path id="_Path_322" data-name="&lt;Path&gt;" class="cls-13" d="M255.46,165.54a1.68,1.68,0,0,1,.7-2.19,1.51,1.51,0,0,1,2.14.5,1.68,1.68,0,0,1-.69,2.2,1.52,1.52,0,0,1-2.15-.51Z"/><path id="_Compound_Path_29" data-name="&lt;Compound Path&gt;" class="cls-30" d="M255.88,164.71a1,1,0,0,1,.93-1.13,1.11,1.11,0,0,1,1.18,1,1,1,0,0,1-.93,1.13,1.12,1.12,0,0,1-1.18-1Zm.66-.31a.43.43,0,0,1,.61-.15.51.51,0,0,1,.08.68.43.43,0,0,1-.61.15.53.53,0,0,1-.08-.68Z"/></g><g id="_Group_57" data-name="&lt;Group&gt;"><polygon id="_Path_323" data-name="&lt;Path&gt;" class="cls-13" points="256.38 171.65 258.19 171.49 257.91 173.43 259.73 173.07 259.53 174.93 261.42 174.59 261.27 176.72 263.36 176.23 263.16 178.23 264.93 177.71 264.86 179.57 267.19 178.83 256.43 169.15 256.38 171.65 256.38 171.65"/><polygon id="_Path_324" data-name="&lt;Path&gt;" class="cls-29" points="256.81 171.31 258.07 171.16 256.86 170.07 256.81 171.31 256.81 171.31"/><polygon id="_Path_325" data-name="&lt;Path&gt;" class="cls-29" points="258.41 173.03 259.79 172.68 258.57 171.58 258.41 173.03 258.41 173.03"/><polygon id="_Path_326" data-name="&lt;Path&gt;" class="cls-29" points="260.01 174.55 261.54 174.29 260.17 173.06 260.01 174.55 260.01 174.55"/><polygon id="_Path_327" data-name="&lt;Path&gt;" class="cls-29" points="261.79 176.24 263.29 175.89 261.91 174.66 261.79 176.24 261.79 176.24"/><polygon id="_Path_328" data-name="&lt;Path&gt;" class="cls-29" points="263.59 177.77 264.96 177.39 263.74 176.27 263.59 177.77 263.59 177.77"/><polygon id="_Path_329" data-name="&lt;Path&gt;" class="cls-29" points="265.28 179.03 266.46 178.71 265.41 177.77 265.28 179.03 265.28 179.03"/></g><g id="_Group_58" data-name="&lt;Group&gt;"><path id="_Path_330" data-name="&lt;Path&gt;" class="cls-13" d="M502.82,188.88a6.38,6.38,0,0,1,6.44-7l3.06-3.38.41,4.12L517,180l-2.11,4.4,5.83-.11-4.5,2.75,6.12,1.93-6,1.4,6,3.2-6.89.17,2.54,4.36-6-2.57a6.68,6.68,0,0,1-2.76.45C505.55,195.78,503,192.71,502.82,188.88Z"/><path id="_Path_331" data-name="&lt;Path&gt;" class="cls-78" d="M503.6,188.56c-.42-4.27,2.49-6.39,5.83-6.26s6,2.74,5.87,7.08c-.14,3.72-2.25,6.19-6.12,6.11-2.83-.05-4.51-1.92-5.23-4.53a6.58,6.58,0,0,0,3.49,2.64,4.84,4.84,0,0,0,5.68-2.36,4.74,4.74,0,0,0-5.53-6.7,3.32,3.32,0,0,0-2.66,3.65,3.48,3.48,0,0,0,2.95,3.35,2.84,2.84,0,0,0,3.65-2.33,2.87,2.87,0,0,0-2.83-3.52,2.35,2.35,0,0,0-2.17,2.76c.21,1.68,1.52,2.49,2.73,1.82a1.53,1.53,0,0,0,.22-2.55,1,1,0,0,0-1.45,1.07c.05.35.43.29.41-.06a.52.52,0,0,1,.84-.49,1,1,0,0,1-.27,1.66c-1,.54-1.75-.4-1.9-1.46a2,2,0,0,1,1.59-2.34,2.49,2.49,0,0,1,2.43,3,2.42,2.42,0,0,1-3.08,1.93,3,3,0,0,1-2.71-2.89,3.2,3.2,0,0,1,2.35-3.22,4.31,4.31,0,0,1,5.08,2.21,4.48,4.48,0,0,1,0,3.9,4.24,4.24,0,0,1-5.12,2A5.36,5.36,0,0,1,503.6,188.56Z"/><path id="_Path_332" data-name="&lt;Path&gt;" class="cls-79" d="M512.32,182.6l-.33-3-1.85,2.34A6.41,6.41,0,0,1,512.32,182.6Z"/><path id="_Path_333" data-name="&lt;Path&gt;" class="cls-79" d="M514.35,184.37l1.72-3.4-2.93,2.15A5.74,5.74,0,0,1,514.35,184.37Z"/><path id="_Path_334" data-name="&lt;Path&gt;" class="cls-79" d="M515.46,186.78l4-2.13-4.87.14A7.56,7.56,0,0,1,515.46,186.78Z"/><path id="_Path_335" data-name="&lt;Path&gt;" class="cls-79" d="M515.73,189.85l5.26-1-5.4-1.52A9.8,9.8,0,0,1,515.73,189.85Z"/><path id="_Path_336" data-name="&lt;Path&gt;" class="cls-79" d="M514.77,193.13l5.88.13-5-2.68A7.09,7.09,0,0,1,514.77,193.13Z"/><path id="_Path_337" data-name="&lt;Path&gt;" class="cls-79" d="M512.41,195.27l4.68,2-2.48-3.91A5.68,5.68,0,0,1,512.41,195.27Z"/></g></g></g></g></svg>