<?xml version="1.0" standalone="no"?>
<!DOCTYPE svg PUBLIC "-//W3C//DTD SVG 20010904//EN"
 "http://www.w3.org/TR/2001/REC-SVG-20010904/DTD/svg10.dtd">
<svg version="1.0" xmlns="http://www.w3.org/2000/svg"
 width="656.000000pt" height="656.000000pt" viewBox="0 0 656.000000 656.000000"
 preserveAspectRatio="xMidYMid meet">
<metadata>
Created by potrace 1.11, written by Peter Selinger 2001-2013
</metadata>
<g transform="translate(0.000000,656.000000) scale(0.100000,-0.100000)"
fill="#000000" stroke="none">
<path d="M3274 6413 c-36 -76 -97 -202 -135 -280 -77 -157 -60 -141 -179 -158
-19 -3 -82 -12 -140 -20 -58 -9 -123 -19 -145 -22 -22 -3 -76 -11 -120 -18
-44 -7 -83 -11 -87 -8 -28 16 18 -33 213 -227 199 -199 220 -224 215 -248 -3
-15 -8 -45 -11 -67 -3 -22 -12 -76 -20 -120 -8 -44 -17 -96 -19 -115 -3 -19
-7 -44 -9 -55 -4 -17 -16 -90 -32 -192 -2 -13 -6 -27 -10 -33 -11 -17 4 -12
93 37 159 85 226 121 282 150 30 15 57 30 60 33 3 3 30 18 60 33 l56 29 44
-24 c48 -26 160 -86 305 -163 50 -27 108 -58 130 -70 49 -26 78 -37 72 -27 -3
4 -8 23 -11 42 -3 19 -8 46 -11 60 -3 14 -7 43 -10 65 -3 22 -7 51 -10 65 -5
24 -8 42 -20 120 -2 19 -7 46 -10 60 -3 14 -8 41 -10 60 -3 19 -8 51 -12 70
-3 19 -7 43 -8 54 -1 12 73 93 218 237 121 120 219 219 216 220 -2 0 -13 2
-24 4 -11 2 -40 7 -65 10 -25 3 -72 10 -105 15 -59 10 -75 12 -166 24 -26 4
-55 8 -65 10 -11 2 -44 7 -74 12 -30 4 -59 8 -65 9 -5 1 -18 3 -27 3 -11 1
-28 26 -46 65 -16 34 -73 150 -126 258 -53 108 -96 201 -96 206 0 6 -7 16 -15
23 -12 10 -25 -10 -81 -127z"/>
<path d="M1840 5452 c-14 -9 -27 -19 -30 -23 -4 -5 -62 -45 -109 -74 -39 -25
-76 -50 -81 -55 -3 -3 -63 -44 -135 -92 l-130 -88 -90 36 c-85 33 -104 41
-157 63 -95 40 -312 121 -318 119 -7 -3 28 -137 116 -450 20 -70 33 -135 30
-145 -3 -10 -23 -38 -44 -61 -20 -23 -68 -81 -107 -129 -38 -48 -75 -92 -81
-98 -6 -5 -28 -32 -50 -60 -49 -62 -75 -94 -93 -112 -7 -8 -11 -17 -7 -20 3
-3 50 -7 103 -9 399 -11 497 -15 504 -20 4 -2 55 -79 111 -170 140 -224 139
-222 177 -288 28 -47 36 -55 47 -44 7 7 38 83 69 168 32 85 68 184 82 220 14
36 34 91 46 122 20 56 23 58 72 73 29 8 60 16 71 18 10 2 26 7 34 10 8 3 26 8
40 10 14 3 102 26 195 52 94 25 178 47 188 47 9 1 17 5 17 9 0 4 -73 65 -162
135 -90 71 -172 136 -183 146 -11 9 -45 37 -76 62 -50 40 -56 48 -53 78 9 115
22 287 29 393 3 39 7 98 10 133 3 34 2 62 -2 61 -5 0 -19 -8 -33 -17z"/>
<path d="M4845 5248 c10 -121 15 -184 20 -263 3 -44 8 -111 11 -150 10 -131
10 -150 -1 -160 -6 -5 -31 -26 -55 -45 -25 -19 -46 -38 -48 -42 -2 -4 -10 -8
-17 -8 -7 0 -15 -4 -17 -8 -1 -4 -41 -38 -88 -76 -47 -37 -92 -73 -100 -79 -8
-7 -43 -34 -78 -61 -63 -50 -67 -61 -22 -70 14 -2 70 -16 124 -31 55 -15 111
-29 124 -31 14 -3 29 -7 33 -10 4 -2 52 -16 106 -30 54 -13 115 -29 135 -35
25 -6 39 -17 43 -32 3 -12 12 -38 20 -57 8 -19 37 -98 65 -175 28 -77 58 -156
65 -175 8 -19 25 -63 38 -98 l24 -63 148 238 c82 131 151 240 154 243 3 3 11
14 17 25 9 15 23 21 60 22 54 3 343 13 471 17 45 1 85 5 88 8 6 5 -6 23 -40
62 -6 6 -30 36 -55 66 -25 30 -47 57 -50 60 -3 3 -34 41 -69 85 -35 44 -69 85
-75 90 -13 12 -80 95 -90 112 -4 7 7 66 25 130 17 65 33 125 34 133 2 8 4 15
5 15 1 0 3 7 5 15 2 8 21 80 43 160 22 80 36 146 31 148 -4 2 -21 -4 -38 -13
-17 -8 -33 -15 -36 -15 -8 -1 -205 -76 -260 -100 -11 -5 -67 -27 -125 -49
l-104 -41 -71 46 c-38 26 -71 51 -73 56 -2 4 -10 8 -17 8 -8 0 -20 6 -27 13
-17 17 -325 227 -332 227 -4 0 -4 -28 -1 -62z"/>
<path d="M3255 3957 c-194 -400 -187 -387 -209 -388 -12 0 -30 -2 -41 -4 -11
-2 -42 -7 -70 -10 -90 -12 -110 -15 -135 -20 -22 -4 -43 -7 -140 -21 -20 -2
-45 -6 -55 -8 -11 -2 -45 -7 -75 -11 -30 -4 -58 -9 -61 -11 -4 -2 92 -102 213
-222 l220 -218 -11 -60 c-6 -32 -14 -78 -17 -102 -7 -51 -12 -77 -14 -77 -1 0
-3 -9 -4 -20 -6 -51 -24 -158 -33 -200 -3 -16 -7 -40 -9 -52 -1 -13 -5 -41 -9
-63 -4 -22 -3 -40 1 -40 7 0 109 53 375 196 155 84 177 92 195 75 5 -5 43 -27
84 -49 41 -21 120 -63 175 -92 55 -29 138 -73 184 -98 46 -25 81 -40 78 -35
-4 6 -9 28 -12 49 -2 21 -10 66 -15 99 -6 33 -13 74 -15 90 -2 17 -7 46 -10
65 -4 19 -9 44 -10 55 -2 11 -11 63 -20 115 -9 52 -18 106 -20 120 -2 21 32
59 216 243 120 120 219 219 219 221 0 2 -21 6 -47 9 -86 11 -126 16 -162 22
-20 3 -52 8 -71 11 -19 2 -46 6 -60 9 -14 2 -47 7 -75 11 -27 3 -57 7 -65 9
-8 1 -35 6 -60 10 -62 9 -80 15 -80 25 0 5 -50 112 -111 237 -62 125 -113 233
-114 238 -2 6 -11 25 -22 43 l-19 32 -89 -183z"/>
<path d="M1289 2947 c-51 -88 -269 -440 -280 -451 -5 -6 -17 -11 -26 -13 -16
-2 -406 -15 -545 -17 -32 -1 -58 -2 -58 -4 0 -2 6 -9 13 -16 12 -13 49 -57
118 -142 51 -62 95 -116 123 -149 14 -16 29 -34 34 -40 4 -5 31 -38 60 -73 29
-35 52 -65 52 -67 0 -10 -73 -281 -78 -289 -3 -5 -6 -19 -8 -30 -4 -26 -9 -46
-17 -66 -4 -12 -16 -59 -19 -80 -1 -3 -9 -31 -19 -62 -9 -32 -14 -60 -9 -63 6
-4 192 65 288 105 40 18 66 28 172 69 l104 41 71 -46 c38 -26 72 -51 73 -56 2
-4 8 -8 13 -8 5 0 84 -51 177 -113 92 -63 172 -117 179 -121 12 -7 12 16 -2
184 -2 30 -7 91 -10 135 -3 44 -8 112 -11 150 -12 160 -12 154 11 169 12 8 28
21 36 28 8 7 34 29 59 48 25 19 52 40 60 47 21 17 195 156 252 201 26 20 47
39 47 42 1 3 -41 16 -92 28 -50 13 -99 25 -107 28 -8 2 -35 8 -60 15 -25 6
-52 13 -60 16 -19 8 -30 11 -57 17 -41 9 -217 57 -218 59 0 1 -6 13 -12 27
-13 28 -103 272 -124 335 -8 22 -16 42 -19 45 -3 3 -16 38 -30 79 -37 109 -39
110 -81 38z"/>
<path d="M5192 2762 c-18 -48 -34 -91 -36 -97 -2 -5 -6 -19 -10 -30 -5 -11
-21 -54 -36 -95 -113 -304 -102 -283 -159 -295 -23 -5 -52 -12 -78 -20 -253
-67 -403 -107 -422 -111 -32 -6 -41 -13 -41 -26 0 -6 3 -9 6 -5 5 5 35 -16 76
-55 10 -10 22 -18 27 -18 5 0 11 -4 13 -8 2 -5 23 -24 48 -43 60 -45 194 -151
200 -159 3 -3 21 -17 42 -32 61 -46 64 -52 61 -104 -4 -64 -11 -163 -17 -244
-3 -36 -8 -105 -11 -155 -4 -49 -8 -109 -10 -132 -2 -24 -2 -43 0 -43 2 0 77
50 167 111 90 61 206 140 259 175 l96 65 39 -17 c21 -9 50 -21 64 -27 14 -5
33 -13 42 -18 10 -5 22 -9 28 -9 6 0 29 -9 53 -19 67 -30 326 -131 336 -131 5
0 -2 42 -16 93 -14 50 -26 99 -28 107 -8 34 -76 279 -90 324 -17 53 -19 83 -7
88 4 2 36 39 72 83 81 98 102 125 115 139 6 6 41 49 80 96 38 47 73 87 77 88
4 2 8 8 8 14 0 6 8 17 17 24 29 20 9 27 -94 30 -422 12 -498 16 -510 26 -7 6
-19 21 -26 34 -6 13 -50 85 -97 159 -47 75 -89 143 -95 153 -18 31 -107 172
-109 172 0 0 -16 -39 -34 -88z"/>
<path d="M2800 1707 c0 -11 9 -64 24 -142 2 -11 9 -56 16 -100 7 -44 14 -89
16 -100 3 -11 7 -36 10 -55 3 -19 7 -46 10 -60 2 -14 7 -41 10 -60 2 -19 7
-47 10 -62 5 -24 -16 -49 -216 -247 l-221 -219 43 -7 c24 -4 57 -9 73 -11 17
-3 46 -8 65 -10 19 -3 46 -7 60 -9 14 -2 43 -6 65 -9 53 -8 95 -15 121 -20 19
-4 110 -15 159 -20 21 -2 41 -39 213 -394 l88 -183 39 83 c21 46 42 85 47 86
4 2 8 10 8 17 0 7 26 66 58 132 33 65 73 148 91 186 18 37 35 67 39 68 4 1 18
2 32 4 50 6 125 17 130 20 3 2 34 6 70 10 36 4 67 8 70 10 3 2 29 6 59 10 30
4 63 8 74 11 10 2 45 6 76 10 104 12 110 0 -127 236 -120 119 -217 223 -216
230 1 7 4 36 8 63 3 28 13 86 21 130 9 44 18 96 20 115 3 19 7 46 10 60 3 14
8 45 11 70 3 25 8 54 10 65 3 11 7 35 9 54 3 18 8 37 11 42 3 5 2 9 -2 9 -11
0 -169 -84 -172 -92 -2 -5 -12 -8 -23 -8 -10 0 -19 -4 -19 -9 0 -5 -8 -11 -17
-14 -10 -3 -52 -24 -93 -47 -41 -23 -109 -60 -151 -82 l-76 -40 -39 23 c-21
12 -75 41 -119 64 -44 24 -147 79 -229 124 -82 45 -151 81 -153 81 -2 0 -3 -6
-3 -13z"/>
</g>
</svg>
