<svg xmlns="http://www.w3.org/2000/svg" viewBox="0 0 118.98 40.72"><defs><style>.cls-1{font-size:16px;font-family:Noteworthy-Bold, Noteworthy;font-weight:700;letter-spacing:0.08em;}.cls-2{letter-spacing:0.05em;}.cls-3{letter-spacing:-0.01em;}.cls-4{font-size:8px;letter-spacing:0.1em;}.cls-5{letter-spacing:0.13em;}.cls-6{letter-spacing:0.1em;}.cls-7{letter-spacing:0.01em;}.cls-8{fill:#3fa9f5;stroke:#3f87f5;}.cls-10,.cls-11,.cls-12,.cls-13,.cls-14,.cls-8,.cls-9{stroke-miterlimit:10;}.cls-9{fill:#fcee21;stroke:#fcd221;}.cls-10{fill:#f7931e;stroke:#f15a24;}.cls-11{fill:#333;stroke:#000;}.cls-12{fill:#7ac943;stroke:#39b54a;}.cls-13{fill:#ed1c24;stroke:#c1272d;}.cls-14{fill:#6641a0;stroke:#662d82;}</style></defs><title>Asset 5</title><g id="Layer_2" data-name="Layer 2"><g id="Logo"><text class="cls-1" transform="translate(44.99 22)">S<tspan class="cls-2" x="11.4" y="0">UP</tspan><tspan class="cls-3" x="34.16" y="0">E</tspan><tspan class="cls-2" x="44.76" y="0">R 7</tspan><tspan class="cls-4"><tspan x="0" y="14">TECHN</tspan><tspan class="cls-5" x="32.1" y="14">O</tspan><tspan class="cls-6" x="39.43" y="14">LOGI</tspan><tspan class="cls-7" x="61.05" y="14">E</tspan><tspan x="66.51" y="14">S</tspan></tspan></text><polygon class="cls-8" points="18.39 1.15 19.77 3.99 22.84 4.44 20.62 6.65 21.14 9.77 18.39 8.3 15.65 9.77 16.17 6.65 13.95 4.44 17.02 3.99 18.39 1.15"/><polygon class="cls-9" points="28.24 8.72 30.85 10.5 33.74 9.36 32.92 12.38 34.93 14.82 31.82 14.92 30.17 17.57 29.07 14.6 26.04 13.8 28.47 11.87 28.24 8.72"/><polygon class="cls-10" points="8.73 7.72 6.12 9.5 3.23 8.36 4.05 11.38 2.04 13.82 5.15 13.92 6.79 16.57 7.9 13.6 10.93 12.8 8.5 10.87 8.73 7.72"/><polygon class="cls-11" points="18.39 16.15 19.77 18.99 22.84 19.44 20.62 21.65 21.14 24.77 18.39 23.3 15.65 24.77 16.17 21.65 13.95 19.44 17.02 18.99 18.39 16.15"/><polygon class="cls-12" points="18.39 39.57 19.77 36.73 22.84 36.27 20.62 34.06 21.14 30.94 18.39 32.42 15.65 30.94 16.17 34.06 13.95 36.27 17.02 36.73 18.39 39.57"/><polygon class="cls-13" points="28.24 32.99 30.85 31.22 33.74 32.36 32.92 29.34 34.93 26.9 31.82 26.8 30.17 24.15 29.07 27.11 26.04 27.91 28.47 29.84 28.24 32.99"/><polygon class="cls-14" points="7.73 31.99 5.12 30.22 2.23 31.36 3.05 28.34 1.03 25.9 4.15 25.8 5.79 23.15 6.9 26.11 9.93 26.91 7.5 28.84 7.73 31.99"/></g></g></svg>